<?xml version="1.0" standalone="no"?>
<!DOCTYPE svg PUBLIC "-//W3C//DTD SVG 20010904//EN"
  "http://www.w3.org/TR/2001/REC-SVG-20010904/DTD/svg10.dtd">
<svg version="1.0" xmlns="http://www.w3.org/2000/svg"
     width="1024.000000pt" height="1024.000000pt" viewBox="0 0 1024.000000 1024.000000"
     preserveAspectRatio="xMidYMid meet">
  <metadata>
    Created by potrace 1.11, written by Peter Selinger 2001-2013
  </metadata>
  <g transform="translate(0.000000,1024.000000) scale(0.100000,-0.100000)"
     fill="#000000" stroke="none">
    <path d="M4997 10006 c-23 -11 -112 -75 -197 -142 -286 -222 -804 -627 -860
-671 -30 -24 -59 -47 -65 -51 -5 -4 -70 -55 -144 -112 -74 -58 -166 -129 -205
-159 -39 -30 -73 -57 -76 -61 -3 -3 -34 -28 -70 -55 -36 -27 -101 -77 -145
-112 -44 -35 -84 -67 -90 -71 -101 -77 -141 -108 -145 -112 -6 -6 -330 -259
-460 -359 -47 -36 -87 -68 -90 -71 -3 -3 -23 -19 -45 -35 -22 -17 -42 -32 -45
-35 -3 -4 -23 -19 -45 -35 -22 -17 -42 -32 -45 -35 -3 -3 -43 -35 -90 -70 -47
-36 -87 -67 -90 -70 -10 -10 -67 -55 -95 -75 -15 -11 -42 -31 -59 -46 -31 -25
-151 -119 -621 -485 -143 -112 -388 -303 -545 -426 -158 -123 -326 -254 -375
-292 -160 -123 -183 -152 -189 -229 -11 -149 127 -259 267 -211 20 7 103 65
184 128 81 63 149 113 151 111 3 -2 4 -1200 4 -2662 -1 -1462 2 -2678 5 -2701
7 -57 56 -121 113 -150 l44 -22 1443 0 1443 0 0 1830 0 1830 1218 -3 1217 -2
2 -1800 c1 -990 2 -1812 3 -1828 l0 -27 1443 0 c1405 1 1443 1 1483 20 44 21
89 66 107 109 7 18 11 815 12 2713 0 1478 3 2689 6 2692 2 3 56 -36 119 -86
174 -137 207 -157 268 -162 114 -9 215 83 214 196 0 100 -20 125 -206 269
-155 119 -448 347 -466 362 -8 7 -87 68 -175 137 -88 68 -203 158 -256 200
-53 41 -109 85 -125 97 -16 12 -40 31 -54 42 -40 31 -144 114 -181 142 -19 15
-70 55 -115 90 -45 35 -94 74 -111 87 -29 22 -1154 900 -1223 955 -19 15 -114
88 -210 163 -96 75 -188 147 -205 160 -16 13 -118 92 -225 175 -107 84 -289
227 -405 317 -115 90 -223 175 -240 187 -16 13 -149 117 -295 230 -146 114
-278 214 -293 222 -47 24 -123 24 -170 -1z"/>
    <path d="M7114 9221 c-2 -2 -4 -51 -4 -107 l0 -103 311 -243 c171 -134 323
-252 338 -263 23 -18 361 -280 401 -312 8 -7 49 -39 90 -72 l75 -59 3 576 c1
316 0 578 -4 581 -6 6 -1203 8 -1210 2z"/>
  </g>
</svg>
