<?xml version="1.0" encoding="UTF-8"?>
<svg xmlns="http://www.w3.org/2000/svg">
  <svg id="google-color" xmlns="http://www.w3.org/2000/svg" viewBox="0 0 48 48" version="1.1" width="48px"
       height="48px">
    <g id="surface1">
      <path style=" fill:#FFC107;"
            d="M 43.609375 20.082031 L 42 20.082031 L 42 20 L 24 20 L 24 28 L 35.304688 28 C 33.652344 32.65625 29.222656 36 24 36 C 17.371094 36 12 30.628906 12 24 C 12 17.371094 17.371094 12 24 12 C 27.058594 12 29.84375 13.152344 31.960938 15.039063 L 37.617188 9.382813 C 34.046875 6.054688 29.269531 4 24 4 C 12.953125 4 4 12.953125 4 24 C 4 35.046875 12.953125 44 24 44 C 35.046875 44 44 35.046875 44 24 C 44 22.660156 43.863281 21.351563 43.609375 20.082031 Z "/>
      <path style=" fill:#FF3D00;"
            d="M 6.304688 14.691406 L 12.878906 19.511719 C 14.65625 15.109375 18.960938 12 24 12 C 27.058594 12 29.84375 13.152344 31.960938 15.039063 L 37.617188 9.382813 C 34.046875 6.054688 29.269531 4 24 4 C 16.316406 4 9.65625 8.335938 6.304688 14.691406 Z "/>
      <path style=" fill:#4CAF50;"
            d="M 24 44 C 29.164063 44 33.859375 42.023438 37.410156 38.808594 L 31.21875 33.570313 C 29.210938 35.089844 26.714844 36 24 36 C 18.796875 36 14.382813 32.683594 12.71875 28.054688 L 6.195313 33.078125 C 9.503906 39.554688 16.226563 44 24 44 Z "/>
      <path style=" fill:#1976D2;"
            d="M 43.609375 20.082031 L 42 20.082031 L 42 20 L 24 20 L 24 28 L 35.304688 28 C 34.511719 30.238281 33.070313 32.164063 31.214844 33.570313 C 31.21875 33.570313 31.21875 33.570313 31.21875 33.570313 L 37.410156 38.808594 C 36.972656 39.203125 44 34 44 24 C 44 22.660156 43.863281 21.351563 43.609375 20.082031 Z "/>
    </g>
  </svg>
  <svg id="top-menu" xmlns="http://www.w3.org/2000/svg" viewBox="0 0 24 24" width="24px" height="24px">
    <path
      style="line-height:normal;text-indent:0;text-align:start;text-decoration-line:none;text-decoration-style:solid;text-decoration-color:#000;text-transform:none;block-progression:tb;isolation:auto;mix-blend-mode:normal"
      d="M 12 0.9921875 L 2.9921875 6.2480469 C 2.3788628 6.6056531 2 7.2646798 2 7.9746094 L 2 18 C 2 19.093063 2.9069372 20 4 20 L 20 20 C 21.093063 20 22 19.093063 22 18 L 22 7.9746094 C 22 7.2646798 21.621137 6.6056531 21.007812 6.2480469 L 12 0.9921875 z M 12 3.3085938 L 20 7.9746094 L 20 18 L 4 18 L 4 7.9746094 L 12 3.3085938 z M 8 8 L 8 10 L 16 10 L 16 8 L 8 8 z M 8 11 L 8 13 L 16 13 L 16 11 L 8 11 z M 8 14 L 8 16 L 16 16 L 16 14 L 8 14 z"
      font-weight="400" font-family="sans-serif" white-space="normal" overflow="visible"/>
  </svg>
  <svg id="broom" xmlns="http://www.w3.org/2000/svg" viewBox="0 0 24 24" width="24px" height="24px">
    <path
      d="M 11 1 L 11 9 L 7.7167969 9 C 6.7297969 9 5.8882812 9.7193125 5.7382812 10.695312 L 4 22 L 20 22 L 18.261719 10.695312 C 18.111719 9.7193125 17.270203 9 16.283203 9 L 13 9 L 13 1 L 11 1 z M 7.7167969 11 L 16.283203 11 L 16.591797 13 L 7.4082031 13 L 7.7167969 11 z M 7.0996094 15 L 16.900391 15 L 17.669922 20 L 14.857422 20 L 14 17 L 13.572266 20 L 10.570312 20 L 10 18 L 9.7148438 20 L 6.3300781 20 L 7.0996094 15 z"/>
  </svg>
  <svg id="money" xmlns="http://www.w3.org/2000/svg" viewBox="0 0 24 24" width="24px" height="24px">
    <path
      d="M 19.625 2.0097656 C 19.496406 1.990875 19.362266 1.9965 19.228516 2.03125 L 3.9902344 6 L 11.927734 6 L 17.884766 4.4492188 C 18.137766 4.8212187 18.543188 5.0606094 18.992188 5.0996094 L 19.228516 6 L 21.294922 6 L 20.447266 2.7480469 C 20.343016 2.3475469 20.010781 2.0664375 19.625 2.0097656 z M 3 8 C 2.448 8 2 8.448 2 9 L 2 19 C 2 19.552 2.448 20 3 20 L 21 20 C 21.552 20 22 19.552 22 19 L 22 9 C 22 8.448 21.552 8 21 8 L 3 8 z M 4.9121094 10 L 19.087891 10 A 1.5 1.5 0 0 0 20 10.912109 L 20 17.087891 A 1.5 1.5 0 0 0 19.087891 18 L 4.9121094 18 A 1.5 1.5 0 0 0 4 17.087891 L 4 10.912109 A 1.5 1.5 0 0 0 4.9121094 10 z M 12 11 A 3 3 0 0 0 9 14 A 3 3 0 0 0 12 17 A 3 3 0 0 0 15 14 A 3 3 0 0 0 12 11 z M 7 13 C 6.448 13 6 13.447 6 14 C 6 14.553 6.448 15 7 15 C 7.552 15 8 14.553 8 14 C 8 13.447 7.552 13 7 13 z M 17 13 C 16.448 13 16 13.447 16 14 C 16 14.553 16.448 15 17 15 C 17.552 15 18 14.553 18 14 C 18 13.447 17.552 13 17 13 z"/>
  </svg>
  <svg id="shutdown" xmlns="http://www.w3.org/2000/svg" viewBox="0 0 24 24" width="24px" height="24px">
    <path
      d="M 11 2 L 11 12 L 13 12 L 13 2 L 11 2 z M 9 2.4589844 C 4.943 3.7339844 2 7.523 2 12 C 2 17.523 6.477 22 12 22 C 17.523 22 22 17.523 22 12 C 22 7.523 19.057 3.7339844 15 2.4589844 L 15 4.5878906 C 17.931 5.7748906 20 8.644 20 12 C 20 16.418 16.418 20 12 20 C 7.582 20 4 16.418 4 12 C 4 8.643 6.069 5.7748906 9 4.5878906 L 9 2.4589844 z"/>
  </svg>
  <svg id="home" xmlns="http://www.w3.org/2000/svg" viewBox="0 0 24 24" width="24px" height="24px">
    <path
      style="line-height:normal;text-indent:0;text-align:start;text-decoration-line:none;text-decoration-style:solid;text-decoration-color:#000;text-transform:none;block-progression:tb;isolation:auto;mix-blend-mode:normal"
      d="M 12 2.0996094 L 1 12 L 4 12 L 4 21 L 11 21 L 11 15 L 13 15 L 13 21 L 20 21 L 20 12 L 23 12 L 12 2.0996094 z M 12 4.7910156 L 18 10.191406 L 18 11 L 18 19 L 15 19 L 15 13 L 9 13 L 9 19 L 6 19 L 6 10.191406 L 12 4.7910156 z"
      font-weight="400" font-family="sans-serif" white-space="normal" overflow="visible"/>
  </svg>
  <svg id="house" xmlns="http://www.w3.org/2000/svg" viewBox="0 0 24 24" width="24px" height="24px">
    <path
      d="M 7 3 L 2 10 L 3 10 L 3 21 L 21 21 L 21 10 L 22 10 L 17 3 L 7 3 z M 10.886719 5 L 15.970703 5 L 18.113281 8 L 13.029297 8 L 10.886719 5 z M 8.5 5.0996094 L 12 10 L 19 10 L 19 19 L 11 19 L 11 13 L 7 13 L 7 19 L 5 19 L 5 10 L 8.5 5.0996094 z M 13 13 L 13 17 L 17 17 L 17 13 L 13 13 z"/>
  </svg>
  <svg id="add-new" xmlns="http://www.w3.org/2000/svg" viewBox="0 0 24 24" width="24px" height="24px">
    <path
      style="line-height:normal;text-indent:0;text-align:start;text-decoration-line:none;text-decoration-style:solid;text-decoration-color:#000;text-transform:none;block-progression:tb;isolation:auto;mix-blend-mode:normal"
      d="M 5 3 C 3.9069372 3 3 3.9069372 3 5 L 3 19 C 3 20.093063 3.9069372 21 5 21 L 19 21 C 20.093063 21 21 20.093063 21 19 L 21 5 C 21 3.9069372 20.093063 3 19 3 L 5 3 z M 5 5 L 19 5 L 19 19 L 5 19 L 5 5 z M 11 7 L 11 11 L 7 11 L 7 13 L 11 13 L 11 17 L 13 17 L 13 13 L 17 13 L 17 11 L 13 11 L 13 7 L 11 7 z"
      font-weight="400" font-family="sans-serif" white-space="normal" overflow="visible"/>
  </svg>
  <svg id="plus" xmlns="http://www.w3.org/2000/svg" viewBox="0 0 24 24" width="24px" height="24px">
    <path d="M 11 3 L 11 11 L 3 11 L 3 13 L 11 13 L 11 21 L 13 21 L 13 13 L 21 13 L 21 11 L 13 11 L 13 3 L 11 3 z"/>
  </svg>
  <svg id="enter" xmlns="http://www.w3.org/2000/svg" viewBox="0 0 24 24" width="24px" height="24px">
    <path
      style="line-height:normal;text-indent:0;text-align:start;text-decoration-line:none;text-decoration-style:solid;text-decoration-color:#000;text-transform:none;block-progression:tb;isolation:auto;mix-blend-mode:normal"
      d="M 5 3 C 3.9069372 3 3 3.9069372 3 5 L 3 11 L 3 13 L 3 19 C 3 20.093063 3.9069372 21 5 21 L 19 21 C 20.093063 21 21 20.093063 21 19 L 21 5 C 21 3.9069372 20.093063 3 19 3 L 5 3 z M 5 5 L 19 5 L 19 19 L 5 19 L 5 13 L 11.585938 13 L 9.2929688 15.292969 L 10.707031 16.707031 L 15.414062 12 L 10.707031 7.2929688 L 9.2929688 8.7070312 L 11.585938 11 L 5 11 L 5 5 z"
      font-weight="400" font-family="sans-serif" white-space="normal" overflow="visible"/>
  </svg>
  <svg id="train-station" xmlns="http://www.w3.org/2000/svg" viewBox="0 0 24 24" width="24px" height="24px">
    <path
      style="line-height:normal;text-indent:0;text-align:start;text-decoration-line:none;text-decoration-style:solid;text-decoration-color:#000;text-transform:none;block-progression:tb;isolation:auto;mix-blend-mode:normal"
      d="M 12 -0.0546875 L 2.6835938 3.0507812 L 3.3164062 4.9492188 L 12 2.0546875 L 20.683594 4.9492188 L 21.316406 3.0507812 L 12 -0.0546875 z M 9 5 C 7.9069372 5 7 5.9069372 7 7 L 7 7.203125 C 5.2936368 7.6594792 4 9.1564058 4 11 L 4 19 C 4 20.64497 5.3550302 22 7 22 L 7 24 L 9 24 L 9 22 L 15 22 L 15 24 L 17 24 L 17 22 C 18.64497 22 20 20.64497 20 19 L 20 11 C 20 9.1564058 18.706363 7.6594792 17 7.203125 L 17 7 C 17 5.9069372 16.093063 5 15 5 L 9 5 z M 9 7 L 15 7 L 15 9 L 9 9 L 9 7 z M 6 11 L 18 11 L 18 14 L 6 14 L 6 11 z M 6 16 L 18 16 L 18 19 C 18 19.56503 17.56503 20 17 20 L 7 20 C 6.4349698 20 6 19.56503 6 19 L 6 16 z M 12 17 A 1 1 0 0 0 11 18 A 1 1 0 0 0 12 19 A 1 1 0 0 0 13 18 A 1 1 0 0 0 12 17 z"
      font-weight="400" font-family="sans-serif" white-space="normal" overflow="visible"/>
  </svg>
  <svg id="tram" xmlns="http://www.w3.org/2000/svg" viewBox="0 0 24 24" width="24px" height="24px">
    <path
      d="M 12 0 C 8.9426113 0 6.309955 0.29967448 4.7363281 0.73242188 L 5.2675781 2.6601562 C 6.4939513 2.3229037 9.0813887 2 12 2 C 14.920658 2 17.508002 2.3229037 18.734375 2.6601562 L 19.265625 0.73242188 C 17.691998 0.29967448 15.059342 0 12 0 z M 8 4 C 5.8026661 4 4 5.8026661 4 8 L 4 19 L 4 22.263672 C 4 22.670672 4.336 23 4.75 23 L 7 23 L 7 22 L 17 22 L 17 23 L 19.25 23 C 19.664 23 20 22.670672 20 22.263672 L 20 19 L 20 8 C 20 5.8026661 18.197334 4 16 4 L 8 4 z M 8 6 L 16 6 C 17.116666 6 18 6.8833339 18 8 L 18 12 L 6 12 L 6 8 C 6 6.8833339 6.8833339 6 8 6 z M 6 14 L 18 14 L 18 19 C 18 19.56503 17.56503 20 17 20 L 7 20 C 6.4349698 20 6 19.56503 6 19 L 6 14 z M 12 16 A 1 1 0 0 0 11 17 A 1 1 0 0 0 12 18 A 1 1 0 0 0 13 17 A 1 1 0 0 0 12 16 z"/>
  </svg>
  <svg id="bus" xmlns="http://www.w3.org/2000/svg" viewBox="0 0 24 24" width="24px" height="24px">
    <path
      d="M 11 3 C 7.375 3 3 3.237 3 7 L 3 18 C 3 18.884916 3.3906671 19.671627 4 20.220703 L 4 22 C 4 22.552 4.448 23 5 23 L 6 23 C 6.552 23 7 22.552 7 22 L 7 21 L 17 21 L 17 22 C 17 22.552 17.448 23 18 23 L 19 23 C 19.552 23 20 22.552 20 22 L 20 20.220703 C 20.609333 19.671627 21 18.884916 21 18 L 21 7 C 21 3.237 16.625 3 13 3 L 11 3 z M 11 5 L 13 5 C 17.996 5 19 5.765 19 7 L 5 7 C 5 5.765 6.004 5 11 5 z M 5 9 L 19 9 L 19 12 L 5 12 L 5 9 z M 5 14 L 19 14 L 19 18 C 19 18.551 18.551 19 18 19 L 6 19 C 5.449 19 5 18.551 5 18 L 5 14 z M 7.5 15 A 1.5 1.5 0 0 0 6 16.5 A 1.5 1.5 0 0 0 7.5 18 A 1.5 1.5 0 0 0 9 16.5 A 1.5 1.5 0 0 0 7.5 15 z M 16.5 15 A 1.5 1.5 0 0 0 15 16.5 A 1.5 1.5 0 0 0 16.5 18 A 1.5 1.5 0 0 0 18 16.5 A 1.5 1.5 0 0 0 16.5 15 z"/>
  </svg>
  <svg id="ubahn" xmlns="http://www.w3.org/2000/svg" viewBox="0 0 24 24" width="24px" height="24px">
    <path
      style="line-height:normal;text-indent:0;text-align:start;text-decoration-line:none;text-decoration-style:solid;text-decoration-color:#000;text-transform:none;block-progression:tb;isolation:auto;mix-blend-mode:normal"
      d="M 8 2 C 6.9069372 2 6 2.9069372 6 4 L 6 4.203125 C 4.2936368 4.6594792 3 6.1564058 3 8 L 3 18 C 3 19.64497 4.3550302 21 6 21 L 6 23 L 8 23 L 8 21 L 16 21 L 16 23 L 18 23 L 18 21 C 19.64497 21 21 19.64497 21 18 L 21 8 C 21 6.1564058 19.706363 4.6594792 18 4.203125 L 18 4 C 18 2.9069372 17.093063 2 16 2 L 8 2 z M 8 4 L 16 4 L 16 6 L 17 6 C 18.116666 6 19 6.8833339 19 8 L 5 8 C 5 6.8833339 5.8833339 6 7 6 L 8 6 L 8 4 z M 5 10 L 19 10 L 19 13 L 5 13 L 5 10 z M 5 15 L 19 15 L 19 18 C 19 18.56503 18.56503 19 18 19 L 6 19 C 5.4349698 19 5 18.56503 5 18 L 5 15 z M 8 16 A 1 1 0 0 0 7 17 A 1 1 0 0 0 8 18 A 1 1 0 0 0 9 17 A 1 1 0 0 0 8 16 z M 16 16 A 1 1 0 0 0 15 17 A 1 1 0 0 0 16 18 A 1 1 0 0 0 17 17 A 1 1 0 0 0 16 16 z"
      font-weight="400" font-family="sans-serif" white-space="normal" overflow="visible"/>
  </svg>
</svg>
