<?xml version="1.0" encoding="utf-8"?>
<!-- Generator: Adobe Illustrator 21.0.0, SVG Export Plug-In . SVG Version: 6.00 Build 0)  -->
<svg xmlns="http://www.w3.org/2000/svg" version="1.1" x="0px" y="0px" viewBox="0 0 100 100"
     style="enable-background:new 0 0 100 100;" xml:space="preserve" width="50px" height="50px">

<g id="bin">
</g>
  <g id="full_bin">
</g>
  <g id="bookmark">
</g>
  <g id="edit">
</g>
  <g id="pen">
</g>
  <g id="search">
</g>
  <g id="plus">
</g>
  <g id="multiple">
</g>
  <g id="arrow_top">
</g>
  <g id="arrow_bottom">
</g>
  <g id="minus">
</g>
  <g id="synchronize">
</g>
  <g id="refresh_1_">
</g>
  <g id="left_arrow">
</g>
  <g id="scale">
</g>
  <g id="right_arrow">
</g>
  <g id="expand">
</g>
  <g id="play">
</g>
  <g id="back">
</g>
  <g id="next">
</g>
  <g id="upload">
</g>
  <g id="download">
</g>
  <g id="shared">
</g>
  <g id="checked">
</g>
  <g id="file">
</g>
  <g id="zip_file">
</g>
  <g id="document_file">
</g>
  <g id="image_file">
</g>
  <g id="exel_file">
</g>
  <g id="pdf_file">
</g>
  <g id="folder">
</g>
  <g id="clipboard">
</g>
  <g id="adress">
</g>
  <g id="news">
</g>
  <g id="box">
</g>
  <g id="wooden_box">
</g>
  <g id="calendar">
</g>
  <g id="clock">
	<g>
		<g>
			<circle cx="51.075" cy="48.461" r="39.5" style="fill:#8F9EB6;"/>
      <path
        d="M51.075,88.961c-22.332,0-40.5-18.168-40.5-40.5s18.168-40.5,40.5-40.5s40.5,18.168,40.5,40.5     S73.407,88.961,51.075,88.961z M51.075,9.961c-21.229,0-38.5,17.271-38.5,38.5s17.271,38.5,38.5,38.5s38.5-17.271,38.5-38.5     S72.303,9.961,51.075,9.961z"
        style="fill:#1F212B;"/>
		</g>
    <g>
			<g>
				<path
          d="M84.897,45.542c0.619,7.16-1.006,14.551-5.127,21.052C69.742,82.416,48.728,86.976,32.835,76.779      s-20.647-31.288-10.619-47.11S53.258,9.288,69.151,19.485c5.649,3.625,9.891,8.626,12.562,14.278"
          style="fill:#FEFDEF;"/>
        <path
          d="M51.248,82.726c-6.557,0-13.001-1.881-18.682-5.526C16.467,66.871,11.635,45.429,21.795,29.402      c4.894-7.722,12.512-13.063,21.448-15.04c9.04-2,18.336-0.329,26.178,4.703c5.539,3.554,9.946,8.562,12.745,14.485      c0.118,0.25,0.011,0.548-0.238,0.666s-0.546,0.012-0.666-0.238c-2.719-5.753-7-10.619-12.38-14.071      c-7.618-4.886-16.645-6.511-25.423-4.568c-8.675,1.919-16.069,7.104-20.82,14.599c-9.865,15.565-5.17,36.389,10.467,46.421      c7.617,4.887,16.644,6.509,25.423,4.568c8.675-1.919,16.069-7.104,20.82-14.599c3.939-6.215,5.686-13.387,5.051-20.742      c-0.023-0.275,0.18-0.518,0.455-0.541c0.268-0.029,0.518,0.179,0.541,0.455c0.654,7.574-1.146,14.961-5.203,21.363      c-4.894,7.722-12.512,13.063-21.448,15.04C56.253,82.454,53.742,82.726,51.248,82.726z"
          style="fill:#1F212B;"/>
			</g>
      <g>
				<path d="M83.7,40.012c0.196,0.801,0.363,1.608,0.501,2.421" style="fill:#FEFDEF;"/>
        <path
          d="M84.2,42.934c-0.239,0-0.45-0.172-0.492-0.417c-0.135-0.799-0.301-1.602-0.493-2.386      c-0.066-0.268,0.098-0.539,0.366-0.605c0.272-0.066,0.54,0.099,0.604,0.367c0.198,0.808,0.369,1.634,0.509,2.457      c0.046,0.272-0.138,0.53-0.41,0.577C84.256,42.931,84.228,42.934,84.2,42.934z"
          style="fill:#1F212B;"/>
			</g>
		</g>
    <g>
			<path
        d="M55.314,41.623L34.419,62.645c-0.522,0.526-1.156,1.385-0.633,1.911c0.522,0.526,1.377-0.111,1.9-0.637     L56.58,42.897c0.895,0.235,2.516,0.113,3.213-0.589l1.9-1.911c1.045-1.051,1.045-2.771,0-3.822s-2.754-1.051-3.799,0l-1.9,1.911     C55.297,39.188,55.08,40.723,55.314,41.623z"
        style="fill:#F37E98;"/>
      <path
        d="M34.257,65.253c-0.316,0-0.603-0.119-0.826-0.344c-0.296-0.298-0.825-1.149,0.634-2.616L54.77,41.461     c-0.171-1.07,0.111-2.563,0.87-3.328l1.899-1.911c1.199-1.207,3.309-1.207,4.508,0c1.241,1.248,1.241,3.279,0,4.527l-1.899,1.911     c-0.791,0.796-2.379,0.955-3.404,0.782L36.041,64.272C35.595,64.719,34.924,65.253,34.257,65.253z M59.794,36.286     c-0.585,0-1.134,0.228-1.545,0.641l-1.899,1.911c-0.546,0.549-0.748,1.904-0.552,2.659c0.045,0.171-0.004,0.353-0.129,0.479     L34.774,62.998c-0.522,0.525-0.795,1.044-0.633,1.207c0.035,0.036,0.065,0.048,0.116,0.048c0.181,0,0.57-0.18,1.074-0.686     l20.895-21.021c0.124-0.126,0.307-0.178,0.481-0.131c0.817,0.216,2.219,0.059,2.731-0.458l1.899-1.911     c0.854-0.859,0.854-2.258,0-3.117C60.927,36.514,60.379,36.286,59.794,36.286z"
        style="fill:#1F212B;"/>
		</g>
    <g>
			<g>
				<g>
					<path
            d="M50.075,17.961c-0.276,0-0.5-0.224-0.5-0.5v-3c0-0.276,0.224-0.5,0.5-0.5s0.5,0.224,0.5,0.5v3       C50.575,17.737,50.351,17.961,50.075,17.961z"
            style="fill:#1F212B;"/>
				</g>
        <g>
					<path
            d="M50.075,82.961c-0.276,0-0.5-0.224-0.5-0.5v-4c0-0.276,0.224-0.5,0.5-0.5s0.5,0.224,0.5,0.5v4       C50.575,82.737,50.351,82.961,50.075,82.961z"
            style="fill:#1F212B;"/>
				</g>
			</g>
      <g>
				<g>
					<path
            d="M85.075,47.961h-5c-0.276,0-0.5-0.224-0.5-0.5s0.224-0.5,0.5-0.5h5c0.276,0,0.5,0.224,0.5,0.5       S85.351,47.961,85.075,47.961z"
            style="fill:#1F212B;"/>
				</g>
        <g>
					<path
            d="M20.075,47.961h-2c-0.276,0-0.5-0.224-0.5-0.5s0.224-0.5,0.5-0.5h2c0.276,0,0.5,0.224,0.5,0.5       S20.351,47.961,20.075,47.961z"
            style="fill:#1F212B;"/>
				</g>
			</g>
		</g>
    <g>
			<g>
				<g>
					<line x1="74.453" y1="24.064" x2="71.653" y2="26.881" style="fill:#F37E98;"/>
          <path
            d="M71.653,27.381c-0.128,0-0.255-0.048-0.353-0.146c-0.195-0.194-0.196-0.511-0.002-0.707l2.8-2.817       c0.194-0.196,0.511-0.197,0.707-0.002c0.195,0.194,0.196,0.511,0.002,0.707l-2.8,2.817       C71.91,27.332,71.782,27.381,71.653,27.381z"
            style="fill:#1F212B;"/>
				</g>
        <g>
					<line x1="29.667" y1="69.026" x2="26.867" y2="71.843" style="fill:#F37E98;"/>
          <path
            d="M26.868,72.343c-0.128,0-0.255-0.048-0.353-0.146c-0.195-0.194-0.196-0.511-0.002-0.707l2.8-2.817       c0.194-0.196,0.511-0.197,0.707-0.002c0.195,0.194,0.196,0.511,0.002,0.707l-2.8,2.817       C27.125,72.294,26.997,72.343,26.868,72.343z"
            style="fill:#1F212B;"/>
				</g>
			</g>
      <g>
				<g>
					<line x1="75.304" y1="72.155" x2="72.504" y2="69.338" style="fill:#F37E98;"/>
          <path
            d="M75.304,72.655c-0.129,0-0.257-0.049-0.354-0.147l-2.8-2.817c-0.194-0.196-0.193-0.513,0.002-0.707       c0.197-0.196,0.514-0.193,0.707,0.002l2.8,2.817c0.194,0.196,0.193,0.513-0.002,0.707       C75.559,72.607,75.431,72.655,75.304,72.655z"
            style="fill:#1F212B;"/>
				</g>
        <g>
					<line x1="29.98" y1="26.46" x2="27.181" y2="23.643" style="fill:#F37E98;"/>
          <path
            d="M29.98,26.96c-0.129,0-0.257-0.049-0.354-0.147l-2.8-2.817c-0.194-0.196-0.193-0.513,0.002-0.707       c0.195-0.195,0.512-0.193,0.707,0.002l2.8,2.817c0.194,0.196,0.193,0.513-0.002,0.707C30.235,26.912,30.108,26.96,29.98,26.96z       "
            style="fill:#1F212B;"/>
				</g>
			</g>
		</g>
    <g>
			<path d="M68.575,48.961h-14c-0.553,0-1-0.448-1-1s0.447-1,1-1h14c0.553,0,1,0.448,1,1S69.128,48.961,68.575,48.961z"
            style="fill:#1F212B;"/>
		</g>
    <g>
			<path
        d="M50.575,45.961c-0.553,0-1-0.448-1-1v-23c0-0.552,0.447-1,1-1s1,0.448,1,1v23     C51.575,45.513,51.128,45.961,50.575,45.961z"
        style="fill:#1F212B;"/>
		</g>
    <g>
			<circle cx="50.575" cy="47.961" r="3.5" style="fill:#FEF6AA;"/>
      <path
        d="M50.575,51.961c-2.206,0-4-1.794-4-4s1.794-4,4-4s4,1.794,4,4S52.781,51.961,50.575,51.961z M50.575,44.961     c-1.654,0-3,1.346-3,3s1.346,3,3,3s3-1.346,3-3S52.229,44.961,50.575,44.961z"
        style="fill:#1F212B;"/>
		</g>
	</g>
</g>
  <g id="hourglass">
</g>
  <g id="envelope">
</g>
  <g id="mail_plane">
</g>
  <g id="note">
</g>
  <g id="malbox">
</g>
  <g id="key">
</g>
  <g id="lock_close">
</g>
  <g id="lock_open">
</g>
  <g id="toolbox">
</g>
  <g id="suitcase">
</g>
  <g id="Idea">
</g>
  <g id="dashboard">
</g>
  <g id="home">
</g>
  <g id="chat">
</g>
  <g id="phone">
</g>
  <g id="iphone">
</g>
  <g id="monitor">
</g>
  <g id="laptop">
</g>
  <g id="window">
</g>
  <g id="html_window">
</g>
  <g id="router">
</g>
  <g id="safe">
</g>
  <g id="user_male">
</g>
  <g id="user_female">
</g>
  <g id="camera">
</g>
  <g id="compass">
</g>
  <g id="star">
</g>
  <g id="picture">
</g>
  <g id="preferences">
</g>
  <g id="settings">
</g>
  <g id="options">
</g>
  <g id="printer">
</g>
  <g id="save">
</g>
  <g id="help">
</g>
  <g id="marker">
</g>
  <g id="map">
</g>
  <g id="flag_1_">
</g>
  <g id="shop">
</g>
  <g id="cart">
</g>
  <g id="wallet">
</g>
  <g id="cards">
</g>
  <g id="price">
</g>
  <g id="shopping_bag">
</g>
  <g id="dollars">
</g>
  <g id="basket">
</g>
  <g id="delivery">
</g>
  <g id="bill">
</g>
  <g id="cash_machine">
</g>
  <g id="bill_machine">
</g>
  <g id="calculator">
</g>
  <g id="purse">
</g>
  <g id="geometry">
</g>
  <g id="setsquare">
</g>
  <g id="coins">
</g>
  <g id="cert">
</g>
  <g id="goal">
</g>
  <g id="lab">
</g>
  <g id="cup">
</g>
  <g id="money">
</g>
  <g id="servers">
</g>
  <g id="diamond">
</g>
  <g id="mouse">
</g>
</svg>
