<?xml version="1.0" encoding="utf-8"?>
<!-- Generator: Adobe Illustrator 21.0.0, SVG Export Plug-In . SVG Version: 6.00 Build 0)  -->
<svg xmlns="http://www.w3.org/2000/svg" version="1.1" x="0px" y="0px" viewBox="0 0 100 100"
     style="enable-background:new 0 0 100 100;" xml:space="preserve" width="50px" height="50px">

<g id="tea_1_">
</g>
  <g id="honey">
</g>
  <g id="juice_1_">
</g>
  <g id="ice_cream">
</g>
  <g id="plate">
</g>
  <g id="milk">
</g>
  <g id="cup">
</g>
  <g id="coffee">
</g>
  <g id="drink">
</g>
  <g id="Layer_11">
</g>
  <g id="beach">
</g>
  <g id="_x3C_Layer_x3E_">
	<g>
		<path
      d="M32.039,28.373c0-9.982,8.121-18.104,18.104-18.104s18.104,8.122,18.104,18.104    c0,2.102-1.704,3.805-3.805,3.805c-2.101,0-3.805-1.703-3.805-3.805c0-5.787-4.708-10.494-10.494-10.494    c-5.787,0-10.494,4.708-10.494,10.494c0,5.731,4.619,10.396,10.328,10.486h12.199c3.376,0,6.113,2.733,6.113,6.105v9.328v15.91    v1.426c0,7.377-5.98,13.356-13.356,13.356h-9.505c-7.377,0-13.388-5.98-13.388-13.356V29.412    C32.019,29.068,32.039,28.722,32.039,28.373z"
      style="fill:#FFFFFF;stroke:#1F212B;stroke-width:0;stroke-miterlimit:10;"/>
    <g>
			<path
        d="M32.039,28.373c0-9.982,8.058-18.104,17.964-18.104s17.964,8.122,17.964,18.104     c0,2.102-1.69,3.805-3.775,3.805c-2.085,0-3.775-1.703-3.775-3.805c0-5.787-4.671-10.494-10.413-10.494     c-5.742,0-10.413,4.708-10.413,10.494c0,5.731,4.583,10.396,10.248,10.486h12.105c3.35,0,6.066,2.733,6.066,6.105v9.328v15.91     v1.426c0,7.377-5.934,13.356-13.253,13.356h-9.431c-7.319,0-13.285-5.98-13.285-13.356V29.412     C32.019,29.068,32.039,28.722,32.039,28.373z"
        style="fill:#CECCBE;"/>
      <path
        d="M54.755,85.984h-9.432c-7.876,0-14.284-6.44-14.284-14.356V29.412c-0.013-0.198-0.009-0.453-0.004-0.709     l0.004-0.33c0-10.534,8.507-19.104,18.964-19.104s18.964,8.57,18.964,19.104c0,2.649-2.143,4.805-4.775,4.805     s-4.775-2.155-4.775-4.805c0-5.235-4.223-9.495-9.413-9.495s-9.413,4.259-9.413,9.495c0,5.149,4.156,9.404,9.264,9.486h12.089     c3.896,0,7.065,3.188,7.065,7.105v26.664C69.008,79.544,62.614,85.984,54.755,85.984z M50.003,11.269     c-9.354,0-16.964,7.673-16.964,17.104l-0.005,0.367c-0.004,0.206-0.009,0.411,0.003,0.615l0.002,42.272     c0,6.813,5.511,12.356,12.284,12.356h9.432c6.756,0,12.253-5.543,12.253-12.356V44.964c0-2.815-2.272-5.105-5.065-5.105H49.838     C43.629,39.76,38.59,34.608,38.59,28.373c0-6.338,5.12-11.495,11.413-11.495s11.413,5.156,11.413,11.495     c0,1.546,1.245,2.805,2.775,2.805s2.775-1.258,2.775-2.805C66.967,18.942,59.356,11.269,50.003,11.269z"
        style="fill:#1F212B;"/>
		</g>
    <g>
			<g>
				<path
          d="M58.139,55.363c-2.177-1.755-4.954-2.807-7.98-2.807c-6.985,0-12.648,5.609-12.648,12.527      c0,6.919,5.663,12.527,12.648,12.527s12.648-5.609,12.648-12.527c0-2.568-0.78-4.955-2.118-6.942"
          style="fill:#FEFDEF;"/>
        <path
          d="M50.159,78.111c-7.25,0-13.147-5.845-13.147-13.028s5.897-13.027,13.147-13.027      c3.015,0,5.96,1.036,8.294,2.918c0.215,0.174,0.249,0.488,0.076,0.703c-0.175,0.216-0.49,0.248-0.703,0.076      c-2.157-1.739-4.88-2.697-7.667-2.697c-6.698,0-12.147,5.396-12.147,12.027c0,6.633,5.449,12.028,12.147,12.028      s12.148-5.396,12.148-12.028c0-2.384-0.703-4.688-2.033-6.663c-0.154-0.229-0.093-0.54,0.136-0.694      c0.228-0.153,0.539-0.095,0.694,0.136c1.441,2.142,2.203,4.639,2.203,7.222C63.307,72.266,57.409,78.111,50.159,78.111z"
          style="fill:#1F212B;"/>
			</g>
      <path
        d="M59.359,56.986c-0.132,0-0.264-0.052-0.362-0.155c-0.111-0.117-0.225-0.231-0.341-0.344     c-0.198-0.192-0.204-0.509-0.012-0.707c0.19-0.198,0.51-0.203,0.707-0.012c0.126,0.122,0.249,0.246,0.37,0.373     c0.19,0.2,0.183,0.517-0.018,0.707C59.607,56.94,59.483,56.986,59.359,56.986z"
        style="fill:#1F212B;"/>
      <g>
				<path
          d="M50.159,55.69c-5.188,0-9.393,4.205-9.393,9.393c0,5.188,4.206,9.393,9.393,9.393s9.393-4.206,9.393-9.393      C59.553,59.896,55.347,55.69,50.159,55.69z"
          style="fill:#F15B6C;"/>
        <path
          d="M50.159,74.976c-5.455,0-9.893-4.438-9.893-9.894s4.438-9.893,9.893-9.893s9.894,4.438,9.894,9.893      S55.614,74.976,50.159,74.976z M50.159,56.19c-4.903,0-8.893,3.989-8.893,8.893c0,4.904,3.989,8.894,8.893,8.894      c4.904,0,8.894-3.989,8.894-8.894C59.053,60.18,55.063,56.19,50.159,56.19z"
          style="fill:#1F212B;"/>
			</g>
      <g>
				<path
          d="M54.309,66.601H46.01c-0.733,0-1.333-0.6-1.333-1.333v-0.369c0-0.733,0.6-1.333,1.333-1.333h8.298      c0.733,0,1.333,0.6,1.333,1.333v0.369C55.642,66.001,55.042,66.601,54.309,66.601z"
          style="fill:#FEFDEF;"/>
        <path
          d="M54.308,67.101h-8.298c-1.012,0-1.834-0.822-1.834-1.834v-0.368c0-1.012,0.822-1.834,1.834-1.834h8.298      c1.011,0,1.833,0.822,1.833,1.834v0.368C56.141,66.279,55.319,67.101,54.308,67.101z M46.011,64.065      c-0.46,0-0.834,0.374-0.834,0.834v0.368c0,0.46,0.374,0.834,0.834,0.834h8.298c0.459,0,0.833-0.374,0.833-0.834v-0.368      c0-0.46-0.374-0.834-0.833-0.834H46.011z"
          style="fill:#1F212B;"/>
			</g>
		</g>
	</g>
</g>
  <g id="wayfinding">
</g>
  <g id="ring">
</g>
  <g id="towel">
</g>
  <g id="poker">
</g>
  <g id="blackjack">
</g>
  <g id="domino">
</g>
  <g id="card">
</g>
  <g id="ticket_game">
</g>
  <g id="roulette">
</g>
  <g id="scale">
</g>
  <g id="gavel">
</g>
  <g id="bank">
</g>
  <g id="storefront">
</g>
</svg>
