<?xml version="1.0" encoding="utf-8"?>
<!-- Generator: Adobe Illustrator 21.0.0, SVG Export Plug-In . SVG Version: 6.00 Build 0)  -->
<svg xmlns="http://www.w3.org/2000/svg" version="1.1" x="0px" y="0px" viewBox="0 0 100 100"
     style="enable-background:new 0 0 100 100;" xml:space="preserve" width="50px" height="50px">

<g id="bin">
</g>
  <g id="full_bin">
</g>
  <g id="bookmark">
</g>
  <g id="edit">
</g>
  <g id="pen">
</g>
  <g id="search">
</g>
  <g id="plus">
</g>
  <g id="multiple">
</g>
  <g id="arrow_top">
</g>
  <g id="arrow_bottom">
</g>
  <g id="minus">
</g>
  <g id="synchronize">
</g>
  <g id="refresh_1_">
</g>
  <g id="left_arrow">
</g>
  <g id="scale">
</g>
  <g id="right_arrow">
</g>
  <g id="expand">
</g>
  <g id="play">
</g>
  <g id="back">
</g>
  <g id="next">
</g>
  <g id="upload">
</g>
  <g id="download">
</g>
  <g id="shared">
</g>
  <g id="checked">
</g>
  <g id="file">
</g>
  <g id="zip_file">
</g>
  <g id="document_file">
</g>
  <g id="image_file">
</g>
  <g id="exel_file">
</g>
  <g id="pdf_file">
</g>
  <g id="folder">
</g>
  <g id="clipboard">
</g>
  <g id="adress">
</g>
  <g id="news">
</g>
  <g id="box">
</g>
  <g id="wooden_box">
</g>
  <g id="calendar">
</g>
  <g id="clock">
</g>
  <g id="hourglass">
</g>
  <g id="envelope">
</g>
  <g id="mail_plane">
</g>
  <g id="note">
</g>
  <g id="malbox">
</g>
  <g id="key">
</g>
  <g id="lock_close">
</g>
  <g id="lock_open">
</g>
  <g id="toolbox">
</g>
  <g id="suitcase">
</g>
  <g id="Idea">
</g>
  <g id="dashboard">
</g>
  <g id="home">
	<g>
		<g>
			<rect x="12" y="45.268" width="38" height="32" style="fill:#FEFDEF;"/>
      <path
        d="M48,78.268H12c-0.552,0-1-0.447-1-1v-32c0-0.553,0.448-1,1-1s1,0.447,1,1v31h35c0.552,0,1,0.447,1,1     S48.552,78.268,48,78.268z"
        style="fill:#1F212B;"/>
      <g>
				<rect x="50" y="45.268" width="35" height="34" style="fill:#FEFDEF;"/>
        <path
          d="M85,80.268H50c-0.552,0-1-0.447-1-1v-34c0-0.553,0.448-1,1-1h35c0.552,0,1,0.447,1,1v34      C86,79.82,85.552,80.268,85,80.268z M51,78.268h33v-32H51V78.268z"
          style="fill:#1F212B;"/>
			</g>
      <rect x="51" y="46.268" width="33" height="3" style="fill:#CECCBE;"/>
      <g>
				<polygon
          points="12.03,45.268 8.925,45.268 16.222,26.268 20.577,26.268 33.691,26.268 83.001,26.268       88.631,45.268 87.275,45.268     "
          style="fill:#F37E98;"/>
        <path
          d="M88.631,46.268H8.925c-0.33,0-0.638-0.162-0.824-0.434s-0.228-0.617-0.109-0.925l7.297-19      c0.148-0.387,0.52-0.642,0.934-0.642H83c0.443,0,0.833,0.291,0.959,0.716l5.631,19c0.089,0.303,0.031,0.63-0.158,0.883      S88.947,46.268,88.631,46.268z M10.38,44.268h76.912l-5.038-17H16.909L10.38,44.268z"
          style="fill:#1F212B;"/>
			</g>
      <g>
				<g>
					<polyline points="74.5,58.768 74.5,71.768 60.5,71.768 60.5,55.768 72.5,55.768      " style="fill:#78CDD4;"/>
          <path
            d="M74.5,72.264h-14c-0.274,0-0.496-0.222-0.496-0.496v-16c0-0.274,0.222-0.496,0.496-0.496h12       c0.274,0,0.496,0.222,0.496,0.496s-0.222,0.496-0.496,0.496H60.996v15.008h13.008V58.768c0-0.274,0.222-0.496,0.496-0.496       s0.496,0.222,0.496,0.496v13C74.996,72.042,74.774,72.264,74.5,72.264z"
            style="fill:#1F212B;"/>
				</g>
        <g>
					<path
            d="M67.5,72.264c-0.274,0-0.496-0.222-0.496-0.496v-16c0-0.274,0.222-0.496,0.496-0.496       s0.496,0.222,0.496,0.496v16C67.996,72.042,67.774,72.264,67.5,72.264z"
            style="fill:#1F212B;"/>
				</g>
			</g>
      <g>
				<g>
					<path d="M30.5,76.768V61.345c0-3.618-3.15-6.578-7-6.578c-3.85,0-7,2.96-7,6.578v15.422H30.5z"
                style="fill:#B3B2C3;"/>
          <path
            d="M30.5,77.264h-14c-0.274,0-0.496-0.222-0.496-0.496V61.346c0-3.9,3.363-7.074,7.496-7.074       s7.496,3.174,7.496,7.074v15.422C30.996,77.042,30.774,77.264,30.5,77.264z M16.996,76.272h13.008V61.346       c0-3.354-2.917-6.082-6.504-6.082s-6.504,2.729-6.504,6.082V76.272z"
            style="fill:#1F212B;"/>
				</g>
        <g>
					<path d="M27.5,64.768v-1.692c0-2.415-1.8-4.391-4-4.391s-4,1.976-4,4.391v1.692H27.5z" style="fill:#78A2D2;"/>
          <path
            d="M27.5,65.264h-8c-0.274,0-0.496-0.222-0.496-0.496v-1.692c0-2.695,2.017-4.888,4.496-4.888       s4.496,2.192,4.496,4.888v1.692C27.996,65.042,27.774,65.264,27.5,65.264z M19.996,64.272h7.008v-1.196       c0-2.148-1.572-3.896-3.504-3.896s-3.504,1.747-3.504,3.896V64.272z"
            style="fill:#1F212B;"/>
				</g>
        <g>
					<path
            d="M28.5,69.264h-1c-0.274,0-0.496-0.222-0.496-0.496s0.222-0.496,0.496-0.496h1       c0.274,0,0.496,0.222,0.496,0.496S28.774,69.264,28.5,69.264z"
            style="fill:#1F212B;"/>
				</g>
			</g>
      <rect x="13" y="46.268" width="36" height="2" style="fill:#CECCBE;"/>
		</g>
    <g>
			<polyline points="42.5,65.768 35.5,65.768 35.5,56.768 43.5,56.768 43.5,63.768    " style="fill:#78CDD4;"/>
      <path
        d="M42.5,66.268h-7c-0.276,0-0.5-0.224-0.5-0.5v-9c0-0.276,0.224-0.5,0.5-0.5h8c0.276,0,0.5,0.224,0.5,0.5v7     c0,0.276-0.224,0.5-0.5,0.5s-0.5-0.224-0.5-0.5v-6.5h-7v8h6.5c0.276,0,0.5,0.224,0.5,0.5S42.776,66.268,42.5,66.268z"
        style="fill:#1F212B;"/>
		</g>
    <path
      d="M39.5,66.268c-0.276,0-0.5-0.224-0.5-0.5v-9c0-0.276,0.224-0.5,0.5-0.5s0.5,0.224,0.5,0.5v9    C40,66.044,39.776,66.268,39.5,66.268z"
      style="fill:#1F212B;"/>
    <g>
			<rect x="72.5" y="22.768" width="7" height="14" style="fill:#FED5B3;"/>
      <path
        d="M79.5,37.268h-7c-0.276,0-0.5-0.224-0.5-0.5v-14c0-0.276,0.224-0.5,0.5-0.5h7c0.276,0,0.5,0.224,0.5,0.5v14     C80,37.044,79.776,37.268,79.5,37.268z M73,36.268h6v-13h-6V36.268z"
        style="fill:#1F212B;"/>
		</g>
    <g>
			<path
        d="M80.5,23.768h-9c-0.55,0-1-0.45-1-1v0c0-0.55,0.45-1,1-1h9c0.55,0,1,0.45,1,1v0     C81.5,23.318,81.05,23.768,80.5,23.768z"
        style="fill:#FCBA7F;"/>
      <path
        d="M80.5,24.268h-9c-0.827,0-1.5-0.673-1.5-1.5s0.673-1.5,1.5-1.5h9c0.827,0,1.5,0.673,1.5,1.5     S81.327,24.268,80.5,24.268z M71.5,22.268c-0.276,0-0.5,0.225-0.5,0.5s0.224,0.5,0.5,0.5h9c0.276,0,0.5-0.225,0.5-0.5     s-0.224-0.5-0.5-0.5H71.5z"
        style="fill:#1F212B;"/>
		</g>
    <path
      d="M46.5,49.268h-3c-0.276,0-0.5-0.224-0.5-0.5s0.224-0.5,0.5-0.5h3c0.276,0,0.5,0.224,0.5,0.5    S46.776,49.268,46.5,49.268z"
      style="fill:#1F212B;"/>
    <path
      d="M40.5,49.268h-28c-0.276,0-0.5-0.224-0.5-0.5s0.224-0.5,0.5-0.5h28c0.276,0,0.5,0.224,0.5,0.5    S40.776,49.268,40.5,49.268z"
      style="fill:#1F212B;"/>
    <path
      d="M85.5,50.268h-26c-0.276,0-0.5-0.224-0.5-0.5s0.224-0.5,0.5-0.5h26c0.276,0,0.5,0.224,0.5,0.5    S85.776,50.268,85.5,50.268z"
      style="fill:#1F212B;"/>
    <path
      d="M69.5,31.268h-52c-0.276,0-0.5-0.224-0.5-0.5s0.224-0.5,0.5-0.5h52c0.276,0,0.5,0.224,0.5,0.5    S69.776,31.268,69.5,31.268z"
      style="fill:#1F212B;"/>
    <path
      d="M66.5,34.268h-50c-0.276,0-0.5-0.224-0.5-0.5s0.224-0.5,0.5-0.5h50c0.276,0,0.5,0.224,0.5,0.5    S66.776,34.268,66.5,34.268z"
      style="fill:#1F212B;"/>
    <path
      d="M64.5,37.268h-49c-0.276,0-0.5-0.224-0.5-0.5s0.224-0.5,0.5-0.5h49c0.276,0,0.5,0.224,0.5,0.5    S64.776,37.268,64.5,37.268z"
      style="fill:#1F212B;"/>
    <path
      d="M56.5,50.268h-2c-0.276,0-0.5-0.224-0.5-0.5s0.224-0.5,0.5-0.5h2c0.276,0,0.5,0.224,0.5,0.5    S56.776,50.268,56.5,50.268z"
      style="fill:#1F212B;"/>
	</g>
</g>
  <g id="chat">
</g>
  <g id="phone">
</g>
  <g id="iphone">
</g>
  <g id="monitor">
</g>
  <g id="laptop">
</g>
  <g id="window">
</g>
  <g id="html_window">
</g>
  <g id="router">
</g>
  <g id="safe">
</g>
  <g id="user_male">
</g>
  <g id="user_female">
</g>
  <g id="camera">
</g>
  <g id="compass">
</g>
  <g id="star">
</g>
  <g id="picture">
</g>
  <g id="preferences">
</g>
  <g id="settings">
</g>
  <g id="options">
</g>
  <g id="printer">
</g>
  <g id="save">
</g>
  <g id="help">
</g>
  <g id="marker">
</g>
  <g id="map">
</g>
  <g id="flag_1_">
</g>
  <g id="shop">
</g>
  <g id="cart">
</g>
  <g id="wallet">
</g>
  <g id="cards">
</g>
  <g id="price">
</g>
  <g id="shopping_bag">
</g>
  <g id="dollars">
</g>
  <g id="basket">
</g>
  <g id="delivery">
</g>
  <g id="bill">
</g>
  <g id="cash_machine">
</g>
  <g id="bill_machine">
</g>
  <g id="calculator">
</g>
  <g id="purse">
</g>
  <g id="geometry">
</g>
  <g id="setsquare">
</g>
  <g id="coins">
</g>
  <g id="cert">
</g>
  <g id="goal">
</g>
  <g id="lab">
</g>
  <g id="cup">
</g>
  <g id="money">
</g>
  <g id="servers">
</g>
  <g id="diamond">
</g>
  <g id="mouse">
</g>
</svg>
