<?xml version="1.0" encoding="utf-8"?>
<!-- Generator: Adobe Illustrator 21.0.0, SVG Export Plug-In . SVG Version: 6.00 Build 0)  -->
<svg xmlns="http://www.w3.org/2000/svg" version="1.1" x="0px" y="0px" viewBox="0 0 100 100"
     style="enable-background:new 0 0 100 100;" xml:space="preserve" width="50px" height="50px">

<g id="bin">
</g>
  <g id="full_bin">
</g>
  <g id="bookmark">
</g>
  <g id="edit">
</g>
  <g id="pen">
</g>
  <g id="search">
</g>
  <g id="plus">
</g>
  <g id="multiple">
</g>
  <g id="arrow_top">
</g>
  <g id="arrow_bottom">
</g>
  <g id="minus">
</g>
  <g id="synchronize">
</g>
  <g id="refresh_1_">
</g>
  <g id="left_arrow">
</g>
  <g id="scale">
</g>
  <g id="right_arrow">
</g>
  <g id="expand">
</g>
  <g id="play">
</g>
  <g id="back">
</g>
  <g id="next">
</g>
  <g id="upload">
</g>
  <g id="download">
</g>
  <g id="shared">
</g>
  <g id="checked">
</g>
  <g id="file">
</g>
  <g id="zip_file">
</g>
  <g id="document_file">
</g>
  <g id="image_file">
</g>
  <g id="exel_file">
</g>
  <g id="pdf_file">
</g>
  <g id="folder">
</g>
  <g id="clipboard">
</g>
  <g id="adress">
</g>
  <g id="news">
</g>
  <g id="box">
</g>
  <g id="wooden_box">
</g>
  <g id="calendar">
</g>
  <g id="clock">
</g>
  <g id="hourglass">
</g>
  <g id="envelope">
</g>
  <g id="mail_plane">
</g>
  <g id="note">
</g>
  <g id="malbox">
</g>
  <g id="key">
</g>
  <g id="lock_close">
</g>
  <g id="lock_open">
</g>
  <g id="toolbox">
</g>
  <g id="suitcase">
</g>
  <g id="Idea">
</g>
  <g id="dashboard">
</g>
  <g id="home">
</g>
  <g id="chat">
</g>
  <g id="phone">
</g>
  <g id="iphone">
</g>
  <g id="monitor">
</g>
  <g id="laptop">
</g>
  <g id="window">
</g>
  <g id="html_window">
</g>
  <g id="router">
</g>
  <g id="safe">
</g>
  <g id="user_male">
</g>
  <g id="user_female">
</g>
  <g id="camera">
</g>
  <g id="compass">
</g>
  <g id="star">
</g>
  <g id="picture">
</g>
  <g id="preferences">
</g>
  <g id="settings">
</g>
  <g id="options">
</g>
  <g id="printer">
</g>
  <g id="save">
</g>
  <g id="help">
</g>
  <g id="marker">
</g>
  <g id="map">
	<g>
		<g>
			<polyline points="34.461,72.075 34.461,21.075 49.461,24.997 49.461,76.075    " style="fill:#CECCBE;"/>
      <path
        d="M49.461,76.575c-0.276,0-0.5-0.224-0.5-0.5V25.383l-14-3.661v50.353c0,0.276-0.224,0.5-0.5,0.5     s-0.5-0.224-0.5-0.5v-51c0-0.155,0.072-0.301,0.194-0.396c0.123-0.096,0.283-0.13,0.432-0.088l15,3.923     c0.22,0.058,0.374,0.256,0.374,0.483v51.077C49.961,76.351,49.737,76.575,49.461,76.575z"
        style="fill:#1F212B;"/>
		</g>
    <g>
			<polyline points="49.461,26.075 49.461,76.991 65.461,73.069 65.461,22.075    " style="fill:#FEFDEF;"/>
      <path
        d="M49.461,77.492c-0.111,0-0.22-0.037-0.309-0.106c-0.121-0.095-0.191-0.24-0.191-0.394V26.075     c0-0.276,0.224-0.5,0.5-0.5s0.5,0.224,0.5,0.5v50.279l15-3.678V22.075c0-0.276,0.224-0.5,0.5-0.5s0.5,0.224,0.5,0.5v50.994     c0,0.23-0.157,0.431-0.381,0.485l-16,3.923C49.54,77.487,49.5,77.492,49.461,77.492z"
        style="fill:#1F212B;"/>
		</g>
    <g>
			<polyline points="34.228,73.083 18.961,77.083 18.961,24.917 34.228,20.917    " style="fill:#FEFDEF;"/>
      <path
        d="M18.961,78.084c-0.219,0-0.434-0.072-0.611-0.208c-0.246-0.189-0.389-0.482-0.389-0.792V24.917     c0-0.455,0.307-0.853,0.747-0.968l15.268-4c0.537-0.135,1.081,0.181,1.221,0.714c0.14,0.535-0.18,1.081-0.714,1.222     l-14.521,3.804v50.1l14.014-3.672c0.537-0.136,1.081,0.181,1.221,0.714c0.14,0.535-0.18,1.081-0.714,1.222l-15.268,4     C19.131,78.073,19.045,78.084,18.961,78.084z"
        style="fill:#1F212B;"/>
		</g>
    <g>
			<line x1="34.683" y1="73.083" x2="49.95" y2="77.083" style="fill:#FEFDEF;"/>
      <path
        d="M49.95,78.084c-0.083,0-0.169-0.011-0.254-0.032l-15.268-4c-0.534-0.141-0.854-0.687-0.714-1.222     c0.14-0.533,0.685-0.85,1.221-0.714l15.268,4c0.534,0.141,0.854,0.687,0.714,1.222C50.799,77.787,50.394,78.084,49.95,78.084z"
        style="fill:#1F212B;"/>
		</g>
    <g>
			<line x1="49.95" y1="24.917" x2="34.683" y2="20.917" style="fill:#FEFDEF;"/>
      <path
        d="M49.95,25.917c-0.083,0-0.169-0.011-0.254-0.032l-15.268-4c-0.534-0.141-0.854-0.687-0.714-1.222     c0.14-0.533,0.685-0.85,1.221-0.714l15.268,4c0.534,0.141,0.854,0.687,0.714,1.222C50.799,25.62,50.394,25.917,49.95,25.917z"
        style="fill:#1F212B;"/>
		</g>
    <g>
			<line x1="50.138" y1="24.917" x2="65.405" y2="20.917" style="fill:#FEFDEF;"/>
      <path
        d="M50.137,25.917c-0.444,0-0.849-0.297-0.967-0.746c-0.14-0.535,0.18-1.081,0.714-1.222l15.268-4     c0.538-0.135,1.082,0.181,1.221,0.714c0.14,0.535-0.18,1.081-0.714,1.222l-15.268,4C50.306,25.906,50.221,25.917,50.137,25.917z"
        style="fill:#1F212B;"/>
		</g>
    <g>
			<line x1="65.405" y1="73.083" x2="50.138" y2="77.083" style="fill:#FEFDEF;"/>
      <path
        d="M50.137,78.084c-0.444,0-0.849-0.297-0.967-0.746c-0.14-0.535,0.18-1.081,0.714-1.222l15.268-4     c0.538-0.136,1.082,0.181,1.221,0.714c0.14,0.535-0.18,1.081-0.714,1.222l-15.268,4C50.306,78.073,50.221,78.084,50.137,78.084z"
        style="fill:#1F212B;"/>
		</g>
    <g>
			<polyline points="65.405,20.917 80.961,24.917 80.961,77.083 65.405,73.083    " style="fill:#CECCBE;"/>
      <path
        d="M80.961,78.084c-0.083,0-0.167-0.011-0.249-0.031l-15.555-4c-0.535-0.138-0.857-0.683-0.719-1.218     c0.137-0.534,0.682-0.858,1.217-0.72l14.306,3.679V25.692l-14.804-3.807c-0.535-0.138-0.857-0.683-0.719-1.218     c0.137-0.534,0.682-0.855,1.217-0.72l15.555,4c0.442,0.114,0.751,0.513,0.751,0.969v52.167c0,0.31-0.143,0.601-0.387,0.79     C81.396,78.011,81.18,78.084,80.961,78.084z"
        style="fill:#1F212B;"/>
		</g>
    <g>
			<path
        d="M78.461,39.575c-0.276,0-0.5-0.224-0.5-0.5v-3c0-0.276,0.224-0.5,0.5-0.5s0.5,0.224,0.5,0.5v3     C78.961,39.351,78.737,39.575,78.461,39.575z"
        style="fill:#1F212B;"/>
		</g>
    <path
      d="M78.461,33.575c-0.276,0-0.5-0.224-0.5-0.5v-5.369l-6.858-1.751c-0.268-0.068-0.429-0.341-0.361-0.608    c0.068-0.268,0.338-0.432,0.608-0.36l7.235,1.847c0.222,0.057,0.376,0.256,0.376,0.484v5.758    C78.961,33.351,78.737,33.575,78.461,33.575z"
      style="fill:#1F212B;"/>
    <g>
			<path
        d="M22.461,73.575c-0.276,0-0.5-0.224-0.5-0.5v-3c0-0.276,0.224-0.5,0.5-0.5s0.5,0.224,0.5,0.5v3     C22.961,73.351,22.737,73.575,22.461,73.575z"
        style="fill:#1F212B;"/>
		</g>
    <g>
			<path
        d="M22.461,68.575c-0.276,0-0.5-0.224-0.5-0.5v-9c0-0.276,0.224-0.5,0.5-0.5s0.5,0.224,0.5,0.5v9     C22.961,68.351,22.737,68.575,22.461,68.575z"
        style="fill:#1F212B;"/>
		</g>
    <g>
			<path
        d="M65.461,73.575c-0.276,0-0.5-0.224-0.5-0.5v-51c0-0.276,0.224-0.5,0.5-0.5s0.5,0.224,0.5,0.5v51     C65.961,73.351,65.737,73.575,65.461,73.575z"
        style="fill:#1F212B;"/>
		</g>
    <g>
			<path
        d="M52.461,42.575c-0.276,0-0.5-0.224-0.5-0.5v-3c0-0.276,0.224-0.5,0.5-0.5s0.5,0.224,0.5,0.5v3     C52.961,42.351,52.737,42.575,52.461,42.575z"
        style="fill:#1F212B;"/>
		</g>
    <g>
			<path
        d="M52.461,37.575c-0.276,0-0.5-0.224-0.5-0.5v-9c0-0.276,0.224-0.5,0.5-0.5s0.5,0.224,0.5,0.5v9     C52.961,37.351,52.737,37.575,52.461,37.575z"
        style="fill:#1F212B;"/>
		</g>
	</g>
</g>
  <g id="flag_1_">
</g>
  <g id="shop">
</g>
  <g id="cart">
</g>
  <g id="wallet">
</g>
  <g id="cards">
</g>
  <g id="price">
</g>
  <g id="shopping_bag">
</g>
  <g id="dollars">
</g>
  <g id="basket">
</g>
  <g id="delivery">
</g>
  <g id="bill">
</g>
  <g id="cash_machine">
</g>
  <g id="bill_machine">
</g>
  <g id="calculator">
</g>
  <g id="purse">
</g>
  <g id="geometry">
</g>
  <g id="setsquare">
</g>
  <g id="coins">
</g>
  <g id="cert">
</g>
  <g id="goal">
</g>
  <g id="lab">
</g>
  <g id="cup">
</g>
  <g id="money">
</g>
  <g id="servers">
</g>
  <g id="diamond">
</g>
  <g id="mouse">
</g>
</svg>
