<?xml version="1.0" encoding="iso-8859-1"?>
<!-- Generator: Adobe Illustrator 22.1.0, SVG Export Plug-In . SVG Version: 6.00 Build 0)  -->
<svg xmlns="http://www.w3.org/2000/svg" version="1.1" id="Layer_1" x="0px" y="0px" viewBox="0 0 100 100"
     style="enable-background:new 0 0 100 100;" xml:space="preserve" width="50px" height="50px">
<g>
	<path style="fill:#8F9EB6;"
        d="M69,84H43c-8.284,0-15-6.716-15-15V48c0-2.761,2.239-5,5-5h46c2.761,0,5,2.239,5,5v21   C84,77.284,77.284,84,69,84z"/>
</g>
  <g>
	<rect x="28" y="51" style="fill:#FCBA7F;" width="56" height="10"/>
</g>
  <g>
	<path style="fill:#4E6D91;"
        d="M59.5,77.5l-1.896-7.583C58.152,69.459,58.5,68.77,58.5,68c0-1.381-1.119-2.5-2.5-2.5   s-2.5,1.119-2.5,2.5c0,0.77,0.348,1.459,0.896,1.917L52.5,77.5H59.5z"/>
</g>
  <g>
	<path style="fill:#B3B2C3;"
        d="M25.766,14.014C13.819,13.589,4,23.148,4,35v0.5C4,37.433,5.567,39,7.5,39s3.5-1.567,3.5-3.5v-0.105   c0-7.538,5.793-14.025,13.323-14.379C32.363,20.637,39,27.044,39,35v7.5h7v-6.997C46,24.116,37.146,14.418,25.766,14.014z"/>
</g>
  <g>
	<path style="fill:#1F212B;"
        d="M69,85H43c-8.822,0-16-7.178-16-16V48c0-3.309,2.691-6,6-6h46c3.309,0,6,2.691,6,6v21   C85,77.822,77.822,85,69,85z M33,44c-2.206,0-4,1.794-4,4v21c0,7.72,6.28,14,14,14h26c7.72,0,14-6.28,14-14V48c0-2.206-1.794-4-4-4   H33z"/>
</g>
  <g>
	<path style="fill:#1F212B;"
        d="M47,42.5h-2v-6.997c0-10.92-8.644-20.112-19.27-20.49c-5.483-0.191-10.678,1.792-14.618,5.595   C7.171,24.412,5,29.523,5,35v0.5C5,36.878,6.122,38,7.5,38s2.5-1.122,2.5-2.5v-0.105c0-8.247,6.271-15.001,14.276-15.378   c4.154-0.189,8.081,1.271,11.076,4.128C38.35,27.004,40,30.859,40,35v7.5h-2V35c0-3.588-1.431-6.93-4.028-9.408   c-2.596-2.477-6.002-3.752-9.602-3.577C17.434,22.341,12,28.218,12,35.395V35.5c0,2.481-2.019,4.5-4.5,4.5S3,37.981,3,35.5V35   c0-6.024,2.388-11.647,6.724-15.832c4.334-4.183,10.038-6.357,16.078-6.155C37.49,13.43,47,23.518,47,35.503V42.5z"/>
</g>
  <g>
	<path style="fill:#1F212B;"
        d="M84,52H71.5c-0.276,0-0.5-0.224-0.5-0.5s0.224-0.5,0.5-0.5H84c0.276,0,0.5,0.224,0.5,0.5   S84.276,52,84,52z"/>
</g>
  <g>
	<path style="fill:#1F212B;"
        d="M68.5,52h-5c-0.276,0-0.5-0.224-0.5-0.5s0.224-0.5,0.5-0.5h5c0.276,0,0.5,0.224,0.5,0.5   S68.776,52,68.5,52z"/>
</g>
  <g>
	<path style="fill:#1F212B;"
        d="M60.5,52H28c-0.276,0-0.5-0.224-0.5-0.5S27.724,51,28,51h32.5c0.276,0,0.5,0.224,0.5,0.5   S60.776,52,60.5,52z"/>
</g>
  <g>
	<rect x="28" y="60" style="fill:#1F212B;" width="56" height="1"/>
</g>
  <g>
	<path style="fill:#1F212B;"
        d="M59.5,78h-7c-0.154,0-0.3-0.071-0.395-0.192s-0.128-0.279-0.091-0.429l1.825-7.298   C53.303,69.525,53,68.783,53,68c0-1.654,1.346-3,3-3s3,1.346,3,3c0,0.783-0.303,1.525-0.84,2.081l1.825,7.298   c0.037,0.149,0.004,0.308-0.091,0.429S59.654,78,59.5,78z M53.141,77h5.719l-1.741-6.962c-0.046-0.186,0.018-0.382,0.165-0.505   C57.738,69.153,58,68.594,58,68c0-1.103-0.897-2-2-2s-2,0.897-2,2c0,0.594,0.262,1.153,0.717,1.533   c0.147,0.123,0.211,0.319,0.165,0.505L53.141,77z"/>
</g>
  <g>
	
		<rect x="26.018" y="55.505" transform="matrix(0.5744 -0.8186 0.8186 0.5744 -32.335 49.8194)" style="fill:#1F212B;"
          width="11.446" height="1"/>
</g>
  <g>
	
		<rect x="34.018" y="55.505" transform="matrix(0.5744 -0.8186 0.8186 0.5744 -28.93 56.3681)" style="fill:#1F212B;"
          width="11.446" height="1"/>
</g>
  <g>
	
		<rect x="42.018" y="55.505" transform="matrix(0.5744 -0.8186 0.8186 0.5744 -25.525 62.917)" style="fill:#1F212B;"
          width="11.446" height="1"/>
</g>
  <g>
	
		<rect x="50.018" y="55.505" transform="matrix(0.5744 -0.8186 0.8186 0.5744 -22.12 69.4657)" style="fill:#1F212B;"
          width="11.446" height="1"/>
</g>
  <g>
	
		<rect x="58.018" y="55.505" transform="matrix(0.5744 -0.8186 0.8186 0.5744 -18.715 76.0145)" style="fill:#1F212B;"
          width="11.446" height="1"/>
</g>
  <g>
	
		<rect x="66.018" y="55.505" transform="matrix(0.5744 -0.8186 0.8186 0.5744 -15.3101 82.5632)" style="fill:#1F212B;"
          width="11.446" height="1"/>
</g>
  <g>
	
		<rect x="74.018" y="55.505" transform="matrix(0.5744 -0.8186 0.8186 0.5744 -11.9051 89.1119)" style="fill:#1F212B;"
          width="11.446" height="1"/>
</g>
</svg>
