<?xml version="1.0" encoding="utf-8"?>
<!-- Generator: Adobe Illustrator 21.0.0, SVG Export Plug-In . SVG Version: 6.00 Build 0)  -->
<svg xmlns="http://www.w3.org/2000/svg" version="1.1" x="0px" y="0px" viewBox="0 0 100 100"
     style="enable-background:new 0 0 100 100;" xml:space="preserve" width="50px" height="50px">

<g id="bank">
</g>
  <g id="pig">
</g>
  <g id="card_eject">
</g>
  <g id="cash_money">
</g>
  <g id="card_secured">
</g>
  <g id="cheque">
</g>
  <g id="alarm_coins">
</g>
  <g id="box_edit">
</g>
  <g id="box_lock">
</g>
  <g id="box_favorite">
</g>
  <g id="box_diamont">
</g>
  <g id="box_secured">
</g>
  <g id="chat_edit">
</g>
  <g id="chat_delete">
</g>
  <g id="chat_add">
</g>
  <g id="chat_love">
</g>
  <g id="chat_search">
</g>
  <g id="finance_mail">
</g>
  <g id="finance_order">
</g>
  <g id="finance_dollars">
	<g>
		<g>
			<g>
				<path
          d="M23.241,42.591l1.893-7.53c0.583-2.317,2.955-3.736,5.272-3.153l56.459,14.196      c2.317,0.583,3.736,2.955,3.153,5.272l-6.855,27.261c-0.583,2.317-2.955,3.736-5.272,3.153l-32.137-8.081"
          style="fill:#60BE92;"/>
        <path
          d="M69.07,47.234l-35.984-9.048c-0.562,2.23-2.698,3.615-4.773,3.094l-4.29,17.063      c2.076,0.522,3.304,2.754,2.743,4.986L75.211,75.51c0.561-2.232,2.699-3.618,4.775-3.096l4.29-17.063l-0.001,0      c-2.076-0.522-3.303-2.753-2.743-4.984l-4.351-1.094"
          style="fill:#A1D3A2;"/>
        <line x1="71.503" y1="47.846" x2="70.692" y2="47.642" style="fill:none;"/>
			</g>

      <ellipse transform="matrix(0.2439 -0.9698 0.9698 0.2439 -15.2491 95.3159)" cx="53.5" cy="57.437" rx="7.751"
               ry="7.751" style="fill:#60BE92;"/>

      <ellipse transform="matrix(0.2439 -0.9698 0.9698 0.2439 -18.6524 78.9521)" cx="41.305" cy="51.438" rx="2.999"
               ry="2.999" style="fill:#60BE92;"/>

      <ellipse transform="matrix(0.2438 -0.9698 0.9698 0.2438 -5.9537 112.2398)" cx="69" cy="59.938" rx="2.735"
               ry="2.736" style="fill:#60BE92;"/>
      <g>
				<polyline
          points="13.49,42.591 30.939,21.374 46.436,31.479 54.463,19.946 64.923,27.645 76.026,20.618       70.169,20.618     "
          style="fill:none;"/>
        <circle cx="65.125" cy="26.905" r="1.375" style="fill:#FEFDEF;"/>
        <circle cx="54.875" cy="19.946" r="1.375" style="fill:#FEFDEF;"/>
        <circle cx="46.436" cy="30.979" r="1.375" style="fill:#FEFDEF;"/>
        <circle cx="30.896" cy="20.904" r="1.375" style="fill:#FEFDEF;"/>
        <line x1="73.546" y1="25.988" x2="76.026" y2="20.618" style="fill:none;"/>
			</g>
      <g>
				<path d="M9.851,67.651v4.045c0,1.112,5.371,2.013,11.996,2.013s11.996-0.901,11.996-2.013v-4.045H9.851z"
              style="fill:#EDDC67;"/>
        <ellipse cx="21.847" cy="67.66" rx="11.996" ry="2.013" style="fill:#FEF6AA;"/>
			</g>
      <g>
				<path d="M9.851,60.588v4.045c0,1.112,5.371,2.013,11.996,2.013s11.996-0.901,11.996-2.013v-4.045H9.851z"
              style="fill:#EDDC67;"/>
        <ellipse cx="21.847" cy="60.597" rx="11.996" ry="2.013" style="fill:#FEF6AA;"/>
			</g>
      <g>
				<path d="M9.851,54.588v4.045c0,1.112,5.371,2.013,11.996,2.013s11.996-0.901,11.996-2.013v-4.045H9.851z"
              style="fill:#EDDC67;"/>
        <ellipse cx="21.847" cy="54.597" rx="11.996" ry="2.013" style="fill:#FEF6AA;"/>
			</g>
      <g>
				<path d="M9.851,47.609v4.045c0,1.112,5.371,2.013,11.996,2.013s11.996-0.901,11.996-2.013v-4.045H9.851z"
              style="fill:#EDDC67;"/>
        <ellipse cx="21.847" cy="47.618" rx="11.996" ry="2.013" style="fill:#FEF6AA;"/>
			</g>
      <g>
				<path
          d="M33.826,52.307l-3.843,1.261c-1.057,0.347-0.239,5.731,1.826,12.026c2.065,6.295,4.596,11.118,5.652,10.771      l3.843-1.261L33.826,52.307z"
          style="fill:#EDDC67;"/>

        <ellipse transform="matrix(0.9502 -0.3117 0.3117 0.9502 -17.9871 14.8806)" cx="37.557" cy="63.709" rx="2.013"
                 ry="11.996" style="fill:#FEF6AA;"/>
			</g>
		</g>
    <g>
			<path
        d="M90.528,47.33c-0.734-1.228-1.899-2.095-3.278-2.441L30.792,30.692c-2.857-0.717-5.767,1.021-6.486,3.879     l-1.893,7.53c-0.135,0.536,0.19,1.079,0.726,1.214c0.53,0.131,1.079-0.19,1.213-0.726l1.893-7.53     c0.45-1.789,2.268-2.878,4.059-2.428l56.459,14.196c0.861,0.217,1.589,0.76,2.049,1.529c0.46,0.77,0.594,1.667,0.378,2.528     l-6.854,27.261c-0.45,1.789-2.269,2.879-4.059,2.429L46.14,72.494c-0.533-0.137-1.079,0.19-1.213,0.726     c-0.135,0.536,0.19,1.079,0.726,1.214l32.137,8.081c0.436,0.109,0.872,0.162,1.302,0.162c2.392,0,4.575-1.62,5.184-4.042     l6.854-27.261C91.477,49.994,91.263,48.558,90.528,47.33z"
        style="fill:#1F212B;"/>
      <path
        d="M71.522,48.085c0.041,0.01,0.082,0.015,0.123,0.015c0.224,0,0.427-0.151,0.484-0.378     c0.067-0.268-0.095-0.54-0.363-0.607l-0.811-0.204c-0.269-0.065-0.54,0.096-0.607,0.363c-0.067,0.268,0.095,0.54,0.363,0.607     L71.522,48.085z"
        style="fill:#1F212B;"/>
      <path
        d="M75.23,75.75c0.041,0.01,0.081,0.015,0.122,0.015c0.09,0,0.178-0.024,0.257-0.071     c0.114-0.067,0.196-0.178,0.228-0.307c0.241-0.957,0.811-1.768,1.606-2.283c0.784-0.509,1.693-0.67,2.561-0.449     c0.127,0.03,0.265,0.011,0.379-0.057c0.114-0.067,0.196-0.178,0.228-0.307l4.29-17.063c0.032-0.129,0.012-0.265-0.056-0.379     c-0.068-0.113-0.179-0.195-0.307-0.229c-1.805-0.453-2.873-2.417-2.38-4.377c0.067-0.269-0.095-0.54-0.363-0.607l-4.351-1.094     c-0.269-0.065-0.54,0.096-0.607,0.363c-0.067,0.268,0.095,0.54,0.363,0.607l3.891,0.978c-0.316,2.15,0.824,4.217,2.727,4.949     l-4.061,16.151c-0.985-0.126-1.983,0.107-2.857,0.674c-0.872,0.564-1.529,1.405-1.886,2.399l-33.77-8.492     c-0.44-1.714-0.86-3.094-0.982-3.488c-1.542-4.974-3.779-10.335-5.298-11.104c-0.312-0.156-0.566-0.124-0.725-0.07     c-0.052,0.018-0.098,0.047-0.144,0.076c-0.035-0.01-0.069-0.02-0.106-0.021C33.991,51.537,34,51.511,34,51.482v-4.045     c0-1.258-3.009-1.883-6.088-2.193l0.913-3.632c2.024,0.257,4.003-1.026,4.741-3.07l35.523,8.933     c0.267,0.062,0.539-0.096,0.607-0.363c0.067-0.268-0.095-0.54-0.363-0.607L33.35,37.456c-0.27-0.066-0.54,0.096-0.607,0.363     c-0.494,1.959-2.362,3.188-4.167,2.73c-0.267-0.066-0.54,0.096-0.607,0.363l-1.066,4.24c-2.514-0.202-4.859-0.215-5.404-0.215     c-1.279,0-12.5,0.07-12.5,2.5v4.045c0,0.647,0.791,1.126,1.972,1.484c-1.044,0.314-1.769,0.726-1.923,1.262     C9.019,54.292,9,54.362,9,54.437v4.045c0,0.382,0.275,0.707,0.743,0.981C9.276,59.736,9,60.058,9,60.437v4.045     c0,0.646,0.789,1.125,1.967,1.482c-1.041,0.313-1.758,0.725-1.915,1.259C9.021,67.288,9,67.36,9,67.437v4.045     c0,2.443,11.221,2.514,12.5,2.514c1.216,0,11.413-0.065,12.414-2.172c0.268,0.584,0.535,1.132,0.798,1.634     c1.382,2.633,2.202,3.186,2.759,3.186c0.104,0,0.2-0.02,0.288-0.049l3.497-1.147c0.056,0.01,0.111,0.019,0.16,0.019     c0.107,0,0.199-0.021,0.271-0.045h0c1.354-0.471,0.659-4.675-0.171-8.148L75.23,75.75z M39.307,62.982     c1.957,6.312,2.435,10.644,2.045,11.449c-0.769-0.442-2.799-4.243-4.733-10.481c-1.957-6.312-2.436-10.643-2.045-11.449     C35.342,52.944,37.373,56.745,39.307,62.982z M10,58.482v-2.935c2.776,1.342,10.455,1.39,11.5,1.39     c0.715,0,4.537-0.024,7.77-0.468c0.109,0.926,0.299,1.946,0.524,2.959c-1.905,0.317-4.65,0.568-8.294,0.568     C14.071,59.996,10.282,58.958,10,58.482z M21.5,45.937c7.167,0,10.949,0.961,11.468,1.5c-0.519,0.539-4.301,1.5-11.468,1.5     s-10.949-0.961-11.468-1.5C10.551,46.898,14.333,45.937,21.5,45.937z M10,51.482v-2.935c2.776,1.342,10.455,1.39,11.5,1.39     c1.046,0,8.73-0.048,11.503-1.392l0.008,2.883c-0.293,0.529-4.082,1.567-11.511,1.567S10.282,51.958,10,51.482z M13.376,53.475     c3.301,0.496,7.382,0.521,8.124,0.521c0.723,0,4.618-0.023,7.871-0.483c-0.179,0.473-0.229,1.153-0.188,1.956     c-1.869,0.268-4.42,0.468-7.683,0.468c-7.167,0-10.949-0.961-11.468-1.5C10.295,54.164,11.419,53.785,13.376,53.475z      M21.5,60.996c0.772,0,5.16-0.029,8.522-0.588c0.073,0.301,0.148,0.598,0.223,0.888c-1.913,0.35-4.811,0.641-8.745,0.641     c-5.826,0-9.415-0.635-10.833-1.162c-0.168-0.144-0.296-0.312-0.386-0.507c0.172-0.09,0.433-0.187,0.749-0.285     C14.324,60.957,20.565,60.996,21.5,60.996z M10,64.482v-2.935c2.776,1.342,10.455,1.39,11.5,1.39c0.81,0,5.596-0.03,9.005-0.667     c0.339,1.232,0.659,2.265,0.844,2.844c-1.799,0.449-5.053,0.882-9.849,0.882C14.071,65.996,10.282,64.958,10,64.482z      M13.377,66.475c3.301,0.496,7.381,0.521,8.123,0.521c0.741,0,4.814-0.026,8.113-0.521c1.011,0.158,1.806,0.334,2.366,0.507     c0.096,0.273,0.193,0.547,0.291,0.814c-1.454,0.523-5.018,1.141-10.77,1.141c-7.167,0-10.949-0.961-11.468-1.5     C10.295,67.164,11.419,66.784,13.377,66.475z M33.011,71.428c-0.293,0.529-4.082,1.567-11.511,1.567S10.282,71.958,10,71.482     v-2.935c2.776,1.342,10.455,1.39,11.5,1.39c1.001,0,8.077-0.048,11.111-1.231c0.131,0.341,0.263,0.676,0.395,1.004L33.011,71.428     z M37.501,75.638c-0.594-0.113-2.761-3.388-5.076-10.445c-2.315-7.058-2.51-10.979-2.146-11.396l3.258-1.068     c-0.459,3.02,1.814,10.509,2.126,11.517c1.317,4.248,3.139,8.77,4.59,10.48L37.501,75.638z"
        style="fill:#1F212B;"/>
      <path
        d="M49.138,50.144c-1.948,1.165-3.326,3.02-3.879,5.221c-1.143,4.545,1.625,9.172,6.169,10.314     c0.692,0.174,1.392,0.26,2.087,0.26c1.517,0,3.011-0.41,4.347-1.209c1.948-1.165,3.326-3.02,3.879-5.221     c1.143-4.545-1.625-9.172-6.169-10.314C53.37,48.641,51.086,48.979,49.138,50.144z M59.935,53.587     c1.028,1.719,1.325,3.735,0.837,5.678s-1.704,3.579-3.423,4.606c-1.719,1.028-3.734,1.329-5.677,0.837     c-1.943-0.488-3.579-1.703-4.607-3.422c-1.028-1.719-1.325-3.735-0.837-5.678s1.704-3.579,3.423-4.606     c1.179-0.705,2.497-1.066,3.836-1.066c0.613,0,1.231,0.075,1.841,0.229C57.271,50.654,58.907,51.869,59.935,53.587z"
        style="fill:#1F212B;"/>
      <path
        d="M38.106,50.583c-0.47,1.871,0.669,3.776,2.541,4.248c0.285,0.071,0.57,0.105,0.852,0.105     c1.566,0,2.996-1.061,3.395-2.646c0.47-1.871-0.669-3.776-2.541-4.248C40.488,47.577,38.577,48.712,38.106,50.583z      M43.924,52.046c-0.336,1.336-1.694,2.155-3.033,1.814c-1.336-0.336-2.15-1.697-1.814-3.033c0.285-1.133,1.306-1.891,2.425-1.891     c0.201,0,0.405,0.024,0.608,0.076C43.446,49.349,44.26,50.71,43.924,52.046z"
        style="fill:#1F212B;"/>
      <path
        d="M67.46,57.363c-0.688,0.411-1.174,1.066-1.369,1.843c-0.403,1.604,0.573,3.236,2.177,3.641     c0.244,0.061,0.492,0.092,0.737,0.092c0.535,0,1.062-0.145,1.534-0.427c0.688-0.411,1.174-1.065,1.369-1.843     c0.403-1.604-0.573-3.236-2.177-3.641C68.956,56.836,68.148,56.951,67.46,57.363z M70.939,60.424     c-0.13,0.519-0.454,0.954-0.913,1.229c-0.458,0.275-0.995,0.354-1.514,0.223c-1.069-0.269-1.721-1.357-1.452-2.426     c0.13-0.519,0.454-0.954,0.913-1.229c0.314-0.188,0.666-0.284,1.022-0.284c0.164,0,0.329,0.021,0.491,0.062     C70.557,58.267,71.208,59.356,70.939,60.424z"
        style="fill:#1F212B;"/>
      <path
        d="M13.631,42.91c0.289,0,0.575-0.124,0.773-0.365l16.166-19.657c0.139,0.031,0.282,0.049,0.431,0.049     c0.424,0,0.815-0.134,1.139-0.36l12.563,8.192c-0.005,0.056-0.017,0.11-0.017,0.168c0,1.103,0.897,2,2,2s2-0.897,2-2     c0-0.37-0.108-0.713-0.284-1.01l5.712-8.206c0.268,0.134,0.567,0.217,0.887,0.217c0.406,0,0.782-0.123,1.098-0.332l6.926,5.099     C63.014,26.781,63,26.857,63,26.937c0,1.103,0.897,2,2,2s2-0.897,2-2c0-0.005-0.001-0.009-0.001-0.014l7.124-4.51l-1.344,2.91     c-0.232,0.501-0.013,1.096,0.488,1.327c0.136,0.062,0.278,0.092,0.419,0.092c0.378,0,0.74-0.215,0.908-0.581l2.479-5.37     c0.095-0.204,0.097-0.421,0.053-0.625c0.039-0.164,0.049-0.337,0-0.507c-0.124-0.428-0.516-0.722-0.96-0.722H70     c-0.552,0-1,0.447-1,1s0.448,1,1,1h2.717l-6.739,4.266c-0.29-0.165-0.621-0.266-0.978-0.266c-0.278,0-0.543,0.058-0.784,0.161     l-7.232-5.324c-0.085-1.025-0.936-1.837-1.984-1.837c-1.055,0-1.913,0.824-1.986,1.861l-6.363,9.142     c-0.288,0.005-0.559,0.073-0.805,0.187l-12.867-8.39c-0.102-1.008-0.945-1.8-1.98-1.8c-1.103,0-2,0.897-2,2     c0,0.207,0.041,0.403,0.099,0.591l-16.24,19.747c-0.351,0.426-0.289,1.057,0.137,1.407C13.182,42.835,13.407,42.91,13.631,42.91z      M46.685,31.937c-0.551,0-1-0.448-1-1s0.449-1,1-1s1,0.448,1,1S47.237,31.937,46.685,31.937z M66,26.937c0,0.552-0.449,1-1,1     s-1-0.448-1-1s0.449-1,1-1S66,26.385,66,26.937z M56,19.937c0,0.552-0.449,1-1,1s-1-0.448-1-1s0.449-1,1-1S56,19.385,56,19.937z      M31,19.937c0.551,0,1,0.448,1,1s-0.449,1-1,1s-1-0.448-1-1S30.449,19.937,31,19.937z"
        style="fill:#1F212B;"/>
		</g>
	</g>
</g>
  <g id="folder_medal">
</g>
  <g id="folder_edit">
</g>
  <g id="folder_bills">
</g>
  <g id="folder_pictures">
</g>
  <g id="folder_logs">
</g>
  <g id="folder_diamond">
</g>
  <g id="folder_mail">
</g>
  <g id="folder_favorite">
</g>
  <g id="folder_globe">
</g>
  <g id="folder_music">
</g>
  <g id="open_envelope_remove">
</g>
  <g id="open_envelope_add">
</g>
  <g id="open_envelope_clock">
</g>
  <g id="open_envelope_delete">
</g>
  <g id="envelope_lock">
</g>
  <g id="envelope_love">
</g>
  <g id="envelope_number">
</g>
  <g id="envelope_important">
</g>
  <g id="envelope_dots">
</g>
  <g id="envelope__x40_">
</g>
  <g id="mail_envelope">
</g>
  <g id="envelope_open">
</g>
  <g id="cd">
</g>
  <g id="database_delete">
</g>
  <g id="database_remove">
</g>
  <g id="database_clock">
</g>
  <g id="database_add">
</g>
  <g id="database_check">
</g>
  <g id="databes_dots">
</g>
  <g id="database_search">
</g>
  <g id="window_plug">
</g>
  <g id="window_secured">
</g>
  <g id="window_cloud">
</g>
  <g id="window_star">
</g>
  <g id="window_top">
</g>
  <g id="window_arrows">
</g>
  <g id="window_settings">
</g>
  <g id="window_search">
</g>
  <g id="zoom_out">
</g>
  <g id="zoom_in">
</g>
  <g id="filter">
</g>
  <g id="bell">
</g>
  <g id="battery_plugged">
</g>
  <g id="battery_1">
</g>
  <g id="battery_2">
</g>
  <g id="battery_3_1_">
</g>
  <g id="battery_4_1_">
</g>
  <g id="battery_charge">
</g>
  <g id="game">
</g>
  <g id="polaroid">
</g>
  <g id="remote_control">
</g>
  <g id="tv">
</g>
  <g id="SIM_card">
</g>
  <g id="video_camera">
</g>
  <g id="ticket">
</g>
  <g id="cinema_tape">
</g>
  <g id="movie_clip">
</g>
  <g id="radio">
</g>
  <g id="projector">
</g>
  <g id="tablet">
</g>
  <g id="network_plug">
</g>
  <g id="cooler">
</g>
  <g id="card_sd">
</g>
  <g id="aircard">
</g>
  <g id="USB">
</g>
  <g id="hard_drive">
</g>
  <g id="RAM">
</g>
  <g id="chip">
</g>
  <g id="database">
</g>
  <g id="keyboard">
</g>
  <g id="domain">
</g>
  <g id="imac_connected">
</g>
  <g id="cloud_connection">
</g>
  <g id="connection_lock">
</g>
  <g id="network_security">
</g>
  <g id="shared_files">
</g>
  <g id="internet">
</g>
  <g id="globe_network">
</g>
  <g id="pc">
</g>
  <g id="website">
</g>
</svg>
