<?xml version="1.0" encoding="utf-8"?>
<!-- Generator: Adobe Illustrator 21.0.0, SVG Export Plug-In . SVG Version: 6.00 Build 0)  -->
<svg xmlns="http://www.w3.org/2000/svg" version="1.1" x="0px" y="0px" viewBox="0 0 100 100"
     style="enable-background:new 0 0 100 100;" xml:space="preserve" width="50px" height="50px">

<g id="wind_sock">
</g>
  <g id="umbrella">
</g>
  <g id="temperature">
</g>
  <g id="snow_rain_night">
</g>
  <g id="snow_rain_day">
</g>
  <g id="windy_day">
</g>
  <g id="windy_night">
</g>
  <g id="storm_night">
</g>
  <g id="clear_night">
</g>
  <g id="snow_night">
</g>
  <g id="snow_day">
</g>
  <g id="snow_rain">
</g>
  <g id="foggy_night">
</g>
  <g id="cloudy_night">
</g>
  <g id="rain">
</g>
  <g id="storm">
</g>
  <g id="fog">
</g>
  <g id="wind">
</g>
  <g id="cloudy">
</g>
  <g id="sun">
</g>
  <g id="explorer">
</g>
  <g id="visio">
</g>
  <g id="access">
</g>
  <g id="note">
</g>
  <g id="outlook">
</g>
  <g id="pdf">
</g>
  <g id="power_point">
</g>
  <g id="exel">
</g>
  <g id="word">
</g>
  <g id="office">
</g>
  <g id="bridge">
</g>
  <g id="muse">
</g>
  <g id="flash">
</g>
  <g id="premiere">
</g>
  <g id="after_effects">
</g>
  <g id="dreamwever">
</g>
  <g id="indesign">
</g>
  <g id="lightroom">
</g>
  <g id="illustrator">
</g>
  <g id="photoshop">
</g>
  <g id="presentation">
</g>
  <g id="microphone">
</g>
  <g id="globe">
</g>
  <g id="password">
</g>
  <g id="break_link">
</g>
  <g id="link">
</g>
  <g id="tap">
</g>
  <g id="down">
</g>
  <g id="top">
</g>
  <g id="direction">
</g>
  <g id="move">
</g>
  <g id="click">
</g>
  <g id="point">
</g>
  <g id="like">
</g>
  <g id="support">
</g>
  <g id="wifi">
</g>
  <g id="music">
</g>
  <g id="more">
</g>
  <g id="visible">
</g>
  <g id="error">
	<g>
		<g>
			<path
        d="M70,81.614H31c-6.6,0-12-5.4-12-12v-39c0-6.6,5.4-12,12-12h39c6.6,0,12,5.4,12,12v39     C82,76.214,76.6,81.614,70,81.614z"
        style="fill:#F27C7D;"/>
      <path
        d="M70,82.614H31c-7.168,0-13-5.832-13-13v-39c0-7.168,5.832-13,13-13h39c7.168,0,13,5.832,13,13v39     C83,76.783,77.168,82.614,70,82.614z M31,19.614c-6.065,0-11,4.935-11,11v39c0,6.065,4.935,11,11,11h39c6.065,0,11-4.935,11-11     v-39c0-6.065-4.935-11-11-11H31z"
        style="fill:#1F212B;"/>
		</g>
    <path
      d="M67.379,77H33.621C28.054,77,23.5,72.446,23.5,66.879V33.121C23.5,27.554,28.054,23,33.621,23h33.759    C72.946,23,77.5,27.554,77.5,33.121v33.759C77.5,72.446,72.946,77,67.379,77z"
      style="fill:#FDFCEE;"/>
    <path
      d="M67.163,77.614H33.837C27.861,77.614,23,72.753,23,66.777V33.451c0-5.976,4.861-10.837,10.837-10.837H67.5    c0.276,0,0.5,0.224,0.5,0.5s-0.224,0.5-0.5,0.5H33.837c-5.424,0-9.837,4.413-9.837,9.837v33.326c0,5.424,4.413,9.837,9.837,9.837    h33.326c5.424,0,9.837-4.413,9.837-9.837V48.114c0-0.276,0.224-0.5,0.5-0.5s0.5,0.224,0.5,0.5v18.663    C78,72.753,73.139,77.614,67.163,77.614z"
      style="fill:#1F212B;"/>
    <g>
			<path
        d="M77.5,45.614c-0.276,0-0.5-0.224-0.5-0.5v-4c0-0.276,0.224-0.5,0.5-0.5s0.5,0.224,0.5,0.5v4     C78,45.391,77.776,45.614,77.5,45.614z"
        style="fill:#1F212B;"/>
		</g>
    <g>
			<path
        d="M77.5,39.614c-0.276,0-0.5-0.224-0.5-0.5v-2c0-0.276,0.224-0.5,0.5-0.5s0.5,0.224,0.5,0.5v2     C78,39.391,77.776,39.614,77.5,39.614z"
        style="fill:#1F212B;"/>
		</g>
	</g>
    <g>
		<circle cx="50" cy="50" r="16.5" style="fill:#F27C7D;"/>
      <path
        d="M50,67c-9.374,0-17-7.626-17-17s7.626-17,17-17s17,7.626,17,17S59.374,67,50,67z M50,34    c-8.822,0-16,7.178-16,16s7.178,16,16,16s16-7.178,16-16S58.822,34,50,34z"
        style="fill:#1F212B;"/>
	</g>
    <g>
		<path
      d="M57.635,52.114H42.365c-1.026,0-1.865-0.839-1.865-1.865V48.98c0-1.026,0.839-1.865,1.865-1.865h15.269    c1.026,0,1.865,0.839,1.865,1.865v1.269C59.5,51.275,58.661,52.114,57.635,52.114z"
      style="fill:#FDFCEE;"/>
      <path
        d="M57.635,52.614h-15.27c-1.304,0-2.365-1.061-2.365-2.365v-1.27c0-1.304,1.061-2.365,2.365-2.365h15.27    c1.304,0,2.365,1.061,2.365,2.365v1.27C60,51.553,58.939,52.614,57.635,52.614z M42.365,47.614c-0.753,0-1.365,0.612-1.365,1.365    v1.27c0,0.753,0.612,1.365,1.365,1.365h15.27c0.753,0,1.365-0.612,1.365-1.365v-1.27c0-0.753-0.612-1.365-1.365-1.365H42.365z"
        style="fill:#1F212B;"/>
	</g>
</g>
  <g id="list">
</g>
  <g id="grid">
</g>
  <g id="favorite">
</g>
  <g id="exit">
</g>
  <g id="power">
</g>
  <g id="delete">
</g>
  <g id="msg">
</g>
  <g id="info">
</g>
  <g id="help">
</g>
  <g id="warning">
</g>
  <g id="cassete">
</g>
  <g id="piano">
</g>
  <g id="speaker">
</g>
  <g id="attention">
</g>
  <g id="crown">
</g>
  <g id="prize">
</g>
  <g id="medal">
</g>
  <g id="alarm">
</g>
  <g id="stopper">
</g>
  <g id="flag">
</g>
  <g id="snapchat">
</g>
  <g id="dribbble">
</g>
  <g id="flickr">
</g>
  <g id="youtube">
</g>
  <g id="skype">
</g>
  <g id="twitter">
</g>
  <g id="instagram">
</g>
  <g id="linkedin">
</g>
  <g id="vimeo">
</g>
  <g id="tumbler">
</g>
  <g id="google">
</g>
  <g id="whatsapp">
</g>
  <g id="facebook">
</g>
  <g id="curve">
</g>
  <g id="paint_bucket">
</g>
  <g id="roller">
</g>
  <g id="switch">
</g>
  <g id="scissors">
</g>
  <g id="picker">
</g>
  <g id="brush">
</g>
</svg>
