<?xml version="1.0" encoding="utf-8"?>
<!-- Generator: Adobe Illustrator 21.0.0, SVG Export Plug-In . SVG Version: 6.00 Build 0)  -->
<svg xmlns="http://www.w3.org/2000/svg" version="1.1" x="0px" y="0px" viewBox="0 0 100 100"
     style="enable-background:new 0 0 100 100;" xml:space="preserve" width="50px" height="50px">

<g id="bin">
</g>
  <g id="full_bin">
	<g>
		<g>
			<g>
				<path
          d="M72.654,29L72.654,29h-46h-5v5l5,5l0,36.308C26.654,82.288,31.948,86,38.42,86h22.269      c6.581,0,11.965-3.712,11.965-10.692V38.917l5-4.917v-5H72.654z"
          style="fill:#8B8BC1;"/>
        <path
          d="M60.688,87H38.42c-7.636,0-12.766-4.699-12.766-11.692V39.414l-4.707-4.707      c-0.188-0.188-0.293-0.442-0.293-0.707v-5c0-0.552,0.448-1,1-1h56c0.552,0,1,0.448,1,1v5c0,0.268-0.108,0.525-0.299,0.713      l-4.701,4.623v35.972C73.654,82.301,68.443,87,60.688,87z M22.654,33.586l4.707,4.707c0.188,0.188,0.293,0.442,0.293,0.707      v36.308c0,7.154,5.8,9.692,10.766,9.692h22.269c5.059,0,10.965-2.539,10.965-9.692V38.917c0-0.268,0.108-0.525,0.299-0.713      l4.701-4.623V30h-54V33.586z"
          style="fill:#1F212B;"/>
			</g>
		</g>
    <g>
			<polygon points="68.58,28 72.16,18.931 58.208,13.423 52.454,28    " style="fill:#FEFDEF;"/>
      <path
        d="M68.58,29H52.453c-0.331,0-0.641-0.164-0.827-0.438c-0.187-0.274-0.225-0.622-0.104-0.93l5.754-14.577     c0.203-0.514,0.784-0.764,1.297-0.563L72.527,18c0.247,0.097,0.444,0.289,0.55,0.532c0.105,0.243,0.11,0.519,0.013,0.765     l-3.58,9.069C69.359,28.749,68.99,29,68.58,29z M53.923,27H67.9l2.963-7.506l-12.092-4.773L53.923,27z"
        style="fill:#1F212B;"/>
		</g>
    <g>
			<g>
				<path
          d="M44.654,76.5L44.654,76.5c-1.375,0-2.5-1.125-2.5-2.5V40c0-1.375,1.125-2.5,2.5-2.5h0      c1.375,0,2.5,1.125,2.5,2.5v34C47.154,75.375,46.029,76.5,44.654,76.5z"
          style="fill:#6869AD;"/>
        <path
          d="M44.654,77c-1.654,0-3-1.346-3-3V40c0-1.654,1.346-3,3-3s3,1.346,3,3v34C47.654,75.654,46.308,77,44.654,77      z M44.654,38c-1.103,0-2,0.897-2,2v34c0,1.103,0.897,2,2,2s2-0.897,2-2V40C46.654,38.897,45.757,38,44.654,38z"
          style="fill:#1F212B;"/>
			</g>
      <g>
				<path
          d="M54.654,76.5L54.654,76.5c-1.375,0-2.5-1.125-2.5-2.5V40c0-1.375,1.125-2.5,2.5-2.5h0      c1.375,0,2.5,1.125,2.5,2.5v34C57.154,75.375,56.029,76.5,54.654,76.5z"
          style="fill:#6869AD;"/>
        <path
          d="M54.654,77c-1.654,0-3-1.346-3-3V40c0-1.654,1.346-3,3-3s3,1.346,3,3v34C57.654,75.654,56.308,77,54.654,77      z M54.654,38c-1.103,0-2,0.897-2,2v34c0,1.103,0.897,2,2,2s2-0.897,2-2V40C56.654,38.897,55.757,38,54.654,38z"
          style="fill:#1F212B;"/>
			</g>
      <g>
				<path
          d="M64.654,76.5L64.654,76.5c-1.375,0-2.5-1.125-2.5-2.5V40c0-1.375,1.125-2.5,2.5-2.5h0      c1.375,0,2.5,1.125,2.5,2.5v34C67.154,75.375,66.029,76.5,64.654,76.5z"
          style="fill:#6869AD;"/>
        <path
          d="M64.654,77c-1.654,0-3-1.346-3-3V40c0-1.654,1.346-3,3-3s3,1.346,3,3v34C67.654,75.654,66.308,77,64.654,77      z M64.654,38c-1.103,0-2,0.897-2,2v34c0,1.103,0.897,2,2,2s2-0.897,2-2V40C66.654,38.897,65.757,38,64.654,38z"
          style="fill:#1F212B;"/>
			</g>
      <g>
				<path
          d="M32.154,59.5l0-19.42c0-1.375,1.125-2.5,2.5-2.5h0c1.375,0,2.5,1.125,2.5,2.5v18.75v15.25      c0,1.375-1.125,2.5-2.5,2.5h0c-1.375,0-2.5-1.125-2.5-2.5l0-3.58"
          style="fill:#6869AD;"/>
        <path
          d="M34.654,77.08c-1.654,0-3-1.346-3-3V70.5c0-0.276,0.224-0.5,0.5-0.5c0.276,0,0.5,0.224,0.5,0.5v3.58      c0,1.103,0.897,2,2,2s2-0.897,2-2v-34c0-1.103-0.897-2-2-2s-2,0.897-2,2V59.5c0,0.276-0.224,0.5-0.5,0.5      c-0.276,0-0.5-0.224-0.5-0.5V40.08c0-1.654,1.346-3,3-3s3,1.346,3,3v34C37.654,75.734,36.308,77.08,34.654,77.08z"
          style="fill:#1F212B;"/>
			</g>
      <g>
				<path
          d="M32.154,64c-0.276,0-0.5-0.224-0.5-0.5v-3c0-0.276,0.224-0.5,0.5-0.5c0.276,0,0.5,0.224,0.5,0.5v3      C32.654,63.776,32.43,64,32.154,64z"
          style="fill:#1F212B;"/>
			</g>
		</g>
    <path
      d="M70.154,33h-48c-0.276,0-0.5-0.224-0.5-0.5s0.224-0.5,0.5-0.5h48c0.276,0,0.5,0.224,0.5,0.5    S70.43,33,70.154,33z"
      style="fill:#1F212B;"/>
    <path
      d="M71.154,82h-42c-0.276,0-0.5-0.224-0.5-0.5s0.224-0.5,0.5-0.5h42c0.276,0,0.5,0.224,0.5,0.5    S71.43,82,71.154,82z"
      style="fill:#1F212B;"/>
    <path
      d="M72.654,58.08c-0.552,0-1-0.448-1-1v-14c0-0.552,0.448-1,1-1c2.757,0,5,2.243,5,5v6    C77.654,55.837,75.41,58.08,72.654,58.08z M73.654,44.251v11.657c1.164-0.413,2-1.525,2-2.829v-6    C75.654,45.776,74.818,44.664,73.654,44.251z"
      style="fill:#1F212B;"/>
    <path
      d="M26.654,58.08c-2.757,0-5-2.243-5-5v-6c0-2.757,2.243-5,5-5c0.552,0,1,0.448,1,1v14    C27.654,57.632,27.206,58.08,26.654,58.08z M25.654,44.251c-1.164,0.413-2,1.525-2,2.829v6c0,1.304,0.836,2.416,2,2.829V44.251z"
      style="fill:#1F212B;"/>
    <g>
			<path
        d="M70.608,29c-0.228-1.678-1.997-3-4.153-3h-1.694c0,0-2.427,0.054-3.108,0.862v0.218     C61.563,25.047,57.365,23,57.365,23h-2.711v-5.222c0-2.078-1.889-3.778-4.198-3.778h-7.604c-2.309,0-4.198,1.7-4.198,3.778V20.4     c-9,0-10,1.511-10,3.359V29H70.608z"
        style="fill:#FEF6AA;"/>
      <path
        d="M70.608,30H28.654c-0.552,0-1-0.448-1-1v-5.241c0-3.083,2.641-4.259,10-4.353v-1.628     c0-2.635,2.332-4.778,5.198-4.778h7.604c2.866,0,5.198,2.144,5.198,4.778V22h1.711c0.152,0,0.302,0.035,0.438,0.101     c0.614,0.3,3.139,1.605,4.284,3.348c1.001-0.374,2.194-0.438,2.652-0.448l1.717,0c2.632,0,4.844,1.662,5.144,3.865     c0.039,0.286-0.047,0.575-0.237,0.792C71.172,29.875,70.897,30,70.608,30z M62.046,28h6.99c-0.584-0.605-1.536-1-2.581-1h-1.694     c-0.806,0.02-1.736,0.193-2.156,0.388C62.516,27.663,62.311,27.887,62.046,28z M29.654,28h31.607     c-0.343-0.146-0.589-0.479-0.606-0.875c-0.04-0.898-2.011-2.345-3.526-3.125h-2.475c-0.552,0-1-0.448-1-1v-5.222     c0-1.532-1.435-2.778-3.198-2.778h-7.604c-1.764,0-3.198,1.247-3.198,2.778V20.4c0,0.552-0.448,1-1,1c-9,0-9,1.535-9,2.359V28z"
        style="fill:#1F212B;"/>
		</g>
    <path
      d="M39.154,26c-0.276,0-0.5-0.224-0.5-0.5v-5c0-0.276,0.224-0.5,0.5-0.5s0.5,0.224,0.5,0.5v5    C39.654,25.776,39.43,26,39.154,26z"
      style="fill:#1F212B;"/>
    <path
      d="M54.154,27c-0.276,0-0.5-0.224-0.5-0.5v-5c0-0.276,0.224-0.5,0.5-0.5s0.5,0.224,0.5,0.5v5    C54.654,26.776,54.43,27,54.154,27z"
      style="fill:#1F212B;"/>
    <path
      d="M74.154,33h-2c-0.276,0-0.5-0.224-0.5-0.5s0.224-0.5,0.5-0.5h2c0.276,0,0.5,0.224,0.5,0.5S74.43,33,74.154,33    z"
      style="fill:#1F212B;"/>
	</g>
</g>
  <g id="bookmark">
</g>
  <g id="edit">
</g>
  <g id="pen">
</g>
  <g id="search">
</g>
  <g id="plus">
</g>
  <g id="multiple">
</g>
  <g id="arrow_top">
</g>
  <g id="arrow_bottom">
</g>
  <g id="minus">
</g>
  <g id="synchronize">
</g>
  <g id="refresh_1_">
</g>
  <g id="left_arrow">
</g>
  <g id="scale">
</g>
  <g id="right_arrow">
</g>
  <g id="expand">
</g>
  <g id="play">
</g>
  <g id="back">
</g>
  <g id="next">
</g>
  <g id="upload">
</g>
  <g id="download">
</g>
  <g id="shared">
</g>
  <g id="checked">
</g>
  <g id="file">
</g>
  <g id="zip_file">
</g>
  <g id="document_file">
</g>
  <g id="image_file">
</g>
  <g id="exel_file">
</g>
  <g id="pdf_file">
</g>
  <g id="folder">
</g>
  <g id="clipboard">
</g>
  <g id="adress">
</g>
  <g id="news">
</g>
  <g id="box">
</g>
  <g id="wooden_box">
</g>
  <g id="calendar">
</g>
  <g id="clock">
</g>
  <g id="hourglass">
</g>
  <g id="envelope">
</g>
  <g id="mail_plane">
</g>
  <g id="note">
</g>
  <g id="malbox">
</g>
  <g id="key">
</g>
  <g id="lock_close">
</g>
  <g id="lock_open">
</g>
  <g id="toolbox">
</g>
  <g id="suitcase">
</g>
  <g id="Idea">
</g>
  <g id="dashboard">
</g>
  <g id="home">
</g>
  <g id="chat">
</g>
  <g id="phone">
</g>
  <g id="iphone">
</g>
  <g id="monitor">
</g>
  <g id="laptop">
</g>
  <g id="window">
</g>
  <g id="html_window">
</g>
  <g id="router">
</g>
  <g id="safe">
</g>
  <g id="user_male">
</g>
  <g id="user_female">
</g>
  <g id="camera">
</g>
  <g id="compass">
</g>
  <g id="star">
</g>
  <g id="picture">
</g>
  <g id="preferences">
</g>
  <g id="settings">
</g>
  <g id="options">
</g>
  <g id="printer">
</g>
  <g id="save">
</g>
  <g id="help">
</g>
  <g id="marker">
</g>
  <g id="map">
</g>
  <g id="flag_1_">
</g>
  <g id="shop">
</g>
  <g id="cart">
</g>
  <g id="wallet">
</g>
  <g id="cards">
</g>
  <g id="price">
</g>
  <g id="shopping_bag">
</g>
  <g id="dollars">
</g>
  <g id="basket">
</g>
  <g id="delivery">
</g>
  <g id="bill">
</g>
  <g id="cash_machine">
</g>
  <g id="bill_machine">
</g>
  <g id="calculator">
</g>
  <g id="purse">
</g>
  <g id="geometry">
</g>
  <g id="setsquare">
</g>
  <g id="coins">
</g>
  <g id="cert">
</g>
  <g id="goal">
</g>
  <g id="lab">
</g>
  <g id="cup">
</g>
  <g id="money">
</g>
  <g id="servers">
</g>
  <g id="diamond">
</g>
  <g id="mouse">
</g>
</svg>
